<svg xmlns="http://www.w3.org/2000/svg" viewBox="0 0 1710.83 1012.51" preserveAspectRatio="none">
    <path d="M1697.57,8.33l-19.42-1.51c-2.39-1-4.19-3.31-6.5-4.6-1.94-1.09-4.24-2.27-6.35-2.22-14.09.35-28.39,6.58-41.86,12.28-.9.38-1.96.39-2.93.63-2.96.73-5.23.66-7.06-2.65-.87-1.56-3.84-2.78-5.84-2.74-5.3.1-10.59.89-15.87,1.56-4.49.57-8.83,1.23-13.02-1.57-1.14-.76-3.36-.18-5.01.17-3.99.83-7.89,2.39-11.9,2.72-4.95.41-9.99-.3-14.98-.21-4.1.07-7.78.52-11.43,3.67-6.73,5.82-18.19,4.71-23.6-1.49-7.41,3.64-15.23,2.12-22.87.65-11.8-2.29-23.38-5.86-35.24-7.6-9.3-1.37-18.89-.87-28.35-.98-1.72-.02-3.95.54-5.11,1.69-5.28,5.24-11.79,4.96-18.27,4.36-10.98-1.02-21.77-.04-31.92,4.09-10.32,4.2-18.17,1.88-25.3-6.33-1.85-2.13-5.67-3.48-8.62-3.55-16.47-.38-32.97-.9-49.41-.13-21.6,1.01-43.22,2.59-64.7,5.09-10.05,1.17-19.66,5.71-29.67,7.61-17.67,3.33-35.01,7.22-53.6,2.15-12.88-3.51-27.06-2.66-40.67-2.97-9.29-.21-18.62,1.05-27.93,1.39-2.76.1-5.61-.52-8.33-1.15-4.01-.94-7.9-2.96-11.91-3.18-15.62-.86-31.27-1.17-46.9-1.75-2.12-.08-4.26-.39-6.32-.9-14.87-3.68-29.69-7.59-45.22-7.31-22.81.41-45.63,1.42-68.42.86-15.17-.38-29.21,3.48-43.31,7.7-3.45,1.03-5.76.41-8.8-.95-4.25-1.9-9.34-4.58-13.4-3.73-10.74,2.24-20.6.4-30.97-1.99-11.08-2.55-22.69-4.69-33.92-4.13-8.99.45-17.89,1.86-27.08,1.49-10.78-.43-21.63.77-32.43,1.44-15.74.98-31.33,4.36-47.26,2.61-3.22-.35-6.62.52-9.9,1.06-11.29,1.89-22.56,3.92-33.84,5.84-4.9.84-10.31.56-14.6,2.64-4.08,1.97-7.38,1.93-11.38.96-2.82-.69-5.84-.95-8.74-.81-4.59.21-9.34,1.98-13.7,1.22-15.99-2.78-31.84-6.37-47.76-9.58-6.31-1.27-12.61-2.9-18.99-3.42-21.39-1.74-42.51,1.37-63.64,4.23-3.88.53-7.92.09-11.87-.18-5.9-.41-11.93-2.15-17.65-1.42-14.12,1.81-28.19,2.54-42.35,1.24-2.31-.21-4.67-.49-6.86-1.19-5.62-1.79-11.05-5.07-16.74-5.52-10.69-.85-21.52-.39-32.27.04-6.79.27-13.93.39-20.22,2.56-8.73,3.01-17.62,2.95-26.47,4.06-4.12.52-8.46.74-12.21,2.29-3.46,1.42-6.26,4.45-9.35,6.76-1.66,1.24-3.35,3.53-5.01,3.51-11.98-.13-23.86,4.7-36.01-.04-5.63-2.2-12.02-2.55-18.1-3.5-6.58-1.03-13.31-1.3-19.76-2.81-7.53-1.77-14.77-4.73-22.24-6.82C104.54,1.89,82.53-.81,60.01,1.54c-2.01.21-4.15-.93-6.24-1.39-6.96-1.51-13.92,8.51-21.1,6.97v-.3l-19.42,1.51C14.8,15.51-1.41,22.46.1,29.42c.45,2.09,1.59,4.23,1.39,6.24-2.35,22.52.35,44.53,6.41,66.21,2.09,7.47,5.05,14.71,6.82,22.24,1.52,6.45,1.78,13.19,2.81,19.76.96,6.08,1.3,12.47,3.5,18.1,4.74,12.16-.09,24.03.04,36.01.02,1.66-2.27,3.35-3.51,5.01-2.31,3.1-5.33,5.89-6.76,9.35-1.55,3.75-1.77,8.09-2.29,12.21-1.12,8.85-1.05,17.74-4.06,26.47-2.17,6.3-2.29,13.43-2.56,20.22-.43,10.75-.89,21.58-.04,32.27.45,5.69,3.73,11.12,5.52,16.74.7,2.19.98,4.55,1.19,6.86,1.3,14.16.57,28.23-1.24,42.35-.73,5.73,1.01,11.75,1.42,17.65.27,3.95.71,7.99.18,11.87-2.86,21.13-5.97,42.24-4.23,63.64.52,6.38,2.15,12.68,3.42,18.99,3.21,15.92,6.8,31.77,9.58,47.76.76,4.36-1.01,9.11-1.22,13.7-.13,2.9.13,5.92.81,8.74.97,3.99,1.01,7.29-.96,11.38-2.07,4.29-1.8,9.7-2.64,14.6-1.93,11.28-3.95,22.55-5.84,33.84-.55,3.28-1.42,6.68-1.06,9.9,1.75,15.93-1.63,31.52-2.61,47.26-.67,10.81-1.87,21.66-1.44,32.43.36,9.19-1.05,18.09-1.49,27.08-.56,11.23,1.58,22.84,4.13,33.92,2.39,10.37,4.23,20.24,1.99,30.97-.85,4.06,1.83,9.15,3.73,13.4,1.36,3.04,1.98,5.35.95,8.8-4.22,14.1-8.08,28.14-7.7,43.31.57,22.78-.45,45.61-.86,68.42-.28,15.52,3.63,30.34,7.31,45.22.51,2.06.82,4.2.9,6.32,0,0,9.52,15.98,9.88,17.48.36,1.5,11.11,9.24,11.11,9.24v.3c2.39,1,4.19,3.31,6.5,4.6,1.94,1.09,4.24,2.27,6.35,2.22,14.09-.35,28.39-6.58,41.86-12.28.9-.38,1.96-.39,2.93-.63,2.96-.73,5.23-.66,7.06,2.65.87,1.56,3.84,2.78,5.84,2.74,5.3-.1,10.59-.89,15.87-1.56,4.49-.57,8.83-1.23,13.02,1.57,1.14.76,3.36.18,5.01-.17,3.99-.83,7.88-2.39,11.9-2.72,4.95-.41,9.99.3,14.98.21,4.1-.07,7.78-.52,11.43-3.67,6.73-5.82,18.19-4.71,23.6,1.49,7.41-3.64,15.23-2.12,22.87-.65,11.8,2.29,23.38,5.86,35.24,7.6,9.3,1.37,18.89.87,28.35.98,1.72.02,3.95-.54,5.11-1.69,5.28-5.24,11.79-4.96,18.27-4.36,10.98,1.02,21.77.04,31.92-4.09,10.33-4.2,18.17-1.88,25.3,6.33,1.85,2.13,5.67,3.48,8.62,3.55,16.46.38,32.97.9,49.41.13,21.6-1.01,43.22-2.59,64.7-5.09,10.05-1.17,19.66-5.71,29.67-7.61,17.67-3.33,35.01-7.22,53.6-2.15,12.88,3.51,27.06,2.66,40.67,2.97,9.29.21,18.62-1.05,27.93-1.39,2.76-.1,5.61.52,8.33,1.15,4.01.94,7.9,2.96,11.91,3.18,15.62.86,31.27,1.17,46.9,1.75,2.12.08,4.26.39,6.32.9,14.87,3.68,29.69,7.59,45.22,7.31,22.81-.41,45.63-1.42,68.42-.86,15.17.38,29.21-3.48,43.31-7.7,3.45-1.03,5.76-.41,8.8.95,4.25,1.9,9.34,4.58,13.4,3.73,10.74-2.24,20.6-.4,30.97,1.99,11.08,2.55,22.69,4.69,33.92,4.13,8.99-.45,17.89-1.86,27.08-1.49,10.78.43,21.63-.77,32.43-1.44,15.74-.98,31.33-4.36,47.26-2.61,3.22.35,6.62-.52,9.9-1.06,11.29-1.89,22.56-3.92,33.84-5.84,4.9-.84,10.31-.56,14.6-2.64,4.08-1.97,7.39-1.93,11.38-.96,2.82.69,5.84.95,8.74.81,4.59-.21,9.34-1.98,13.7-1.22,15.99,2.78,31.84,6.37,47.76,9.58,6.31,1.27,12.61,2.9,18.99,3.42,21.39,1.74,42.51-1.37,63.64-4.23,3.88-.53,7.92-.09,11.87.18,5.9.41,11.93,2.15,17.65,1.42,14.12-1.81,28.19-2.54,42.35-1.24,2.31.21,4.67.49,6.86,1.19,5.62,1.79,11.05,5.07,16.74,5.52,10.69.85,21.52.39,32.27-.04,6.79-.27,13.93-.39,20.22-2.56,8.73-3.01,17.62-2.95,26.47-4.06,4.12-.52,8.46-.74,12.21-2.29,3.46-1.42,6.26-4.45,9.35-6.75,1.66-1.24,3.35-3.53,5.01-3.51,11.98.13,23.86-4.7,36.01.04,5.63,2.2,12.02,2.55,18.1,3.5,6.58,1.03,13.31,1.3,19.76,2.81,7.53,1.77,14.77,4.73,22.24,6.82,21.67,6.06,43.69,8.76,66.21,6.41,2.01-.21,4.15.93,6.24,1.39,6.96,1.51,13.92-8.51,21.1-6.97,0,0,10.74-7.74,11.11-9.24s9.88-17.48,9.88-17.48c.08-2.12.39-4.26.9-6.32,3.68-14.87,7.59-29.69,7.31-45.22-.41-22.81-1.42-45.63-.86-68.42.38-15.17-3.48-29.21-7.7-43.31-1.03-3.45-.41-5.76.95-8.8,1.9-4.25,4.58-9.34,3.73-13.4-2.24-10.74-.4-20.6,1.99-30.97,2.55-11.08,4.69-22.69,4.13-33.92-.45-8.99-1.86-17.89-1.49-27.08.43-10.78-.77-21.63-1.44-32.43-.98-15.74-4.36-31.33-2.61-47.26.35-3.22-.52-6.62-1.06-9.9-1.89-11.29-3.92-22.56-5.84-33.84-.84-4.9-.56-10.31-2.64-14.6-1.97-4.08-1.93-7.39-.96-11.38.69-2.82.95-5.84.81-8.74-.21-4.59-1.98-9.34-1.22-13.7,2.78-15.99,6.37-31.84,9.58-47.76,1.27-6.31,2.9-12.61,3.42-18.99,1.74-21.39-1.37-42.51-4.23-63.64-.53-3.88-.09-7.92.18-11.87.41-5.9,2.15-11.93,1.42-17.65-1.81-14.12-2.54-28.19-1.24-42.35.21-2.31.49-4.67,1.19-6.86,1.79-5.62,5.07-11.05,5.52-16.74.85-10.69.39-21.52-.04-32.27-.27-6.79-.39-13.93-2.56-20.22-3.01-8.73-2.95-17.62-4.06-26.47-.52-4.12-.74-8.46-2.29-12.21-1.42-3.46-4.45-6.26-6.76-9.35-1.24-1.66-3.53-3.35-3.51-5.01.13-11.98-4.7-23.86.04-36.01,2.2-5.63,2.55-12.02,3.5-18.1,1.03-6.58,1.3-13.31,2.81-19.76,1.77-7.53,4.73-14.77,6.82-22.24,6.06-21.67,8.76-43.69,6.41-66.21-.21-2.01.93-4.15,1.39-6.24,1.51-6.96-14.7-13.91-13.16-21.09Z"/>
</svg>