<?xml version="1.0" encoding="UTF-8"?>
<svg id="Layer_2" data-name="Layer 2" xmlns="http://www.w3.org/2000/svg" xmlns:xlink="http://www.w3.org/1999/xlink" viewBox="0 0 227.2 341.77">
  <defs>
    <style>
      .cls-1 {
        clip-path: url(#clippath);
      }

      .cls-2 {
        fill: none;
      }

      .cls-2, .cls-3 {
        stroke-width: 0px;
      }

      .cls-3 {
        fill: url(#linear-gradient);
      }
    </style>
    <clipPath id="clippath">
      <path class="cls-2" d="M177.42,319.73c-5.4.02-10.78.64-16.17.85-6.05.24-11.56,1.82-17.45,3.19-1.9.44-13.7,2.18-13.55,4.01.06.76,4.34,1.62,5.14,1.92,2.49.95,5.1,1.61,7.67,2.32,11.19,3.13,22.9,4.27,34.34,6.33,11.22,2.02,22.75,2.68,34.18,3.15,5.2.21,10.41.25,15.62.27v-2.48c-14.8-.37-29.68-.64-44.36-2.36-7.6-.89-15.36-1.37-22.73-3.47-3.94-1.12-7.84-2.33-11.83-3.25-2.38-.55-7.2-.51-8.95-2.38,7.34-.82,14.78-1.28,22.14-.9,7.36.38,14.48,2.42,21.61,4.02,14.31,3.21,29.41,3.08,44.11,2.84v-1.12c-13.93.31-28.56.5-42.16-2.25-7.02-1.42-13.68-3.52-20.87-4.22-7.29-.71-14.68-.34-22,.2-.27-1.42,17.82-4.2,20.08-4.4,7.17-.64,14.33.17,21.49.29,13.67.23,27.55.63,41.04,2.72.81.13,1.62.25,2.43.36v-1.86c-4.55-.64-9.11-1.28-13.71-1.58-11.81-.76-23.65-2.22-35.52-2.22-.18,0-.37,0-.55,0M226.8,290.3c-13.21.36-26.14,3.44-39.42,2.94-6.03-.22-11.87-1.39-17.92-.84-6.46.59-12.69,1.67-19.04,3.13-6.36,1.47-12.68,3.31-19.09,4.52-2.1.4-6.61.49-8.29,2.09-2.09,1.98,1.37,1.81,3.01,2.02,12.68,1.66,25.37,2.94,38.07,4.39,12.6,1.45,24.98,3.61,37.77,2.99,8.51-.41,16.89-2.47,25.32-3.8v-2.43c-3.45.46-6.9.98-10.36,1.53-12.73,2.03-26.11,2.82-38.85,1.36-14.1-1.62-29.08-1.65-42.89-4.86,0-1.36,16.77-1.62,18.63-1.61,7.05.05,14.01.88,21.01,1.48,7.31.62,14.98,1.69,22.34,1.33,6.68-.33,13.39-1.83,19.95-3.2,3.4-.71,6.78-1.48,10.17-2.19v-1.48c-3.65.9-7.29,1.89-10.93,2.66-13.75,2.92-27.65,2.66-41.46,1.51-13.33-1.11-26.35-1.18-39.74-.88.25-1.53,15.89-4.4,17.74-4.78,6.97-1.4,13.66-2.1,20.72-1.77,13.79.64,27.43,2.05,41.26.38,4.15-.5,8.27-1.18,12.4-1.81v-2.72c-.13,0-.27,0-.4.01M168.16,259.65c-14.08,2.47-27.68,6.56-40.92,12.18-6.4,2.71-12.56,5.2-19.18,7.25-3.07.95-6.16,2.12-9.31,2.77-2,.41-5.08.86-1.91,2.47,5.27,2.67,13.13,2.12,18.87,1.54,7.14-.72,14.2-2.46,21.27-3.73,7.26-1.31,14.54-2.75,21.9-2.95,6.93-.19,13.86.47,20.77.75,13.97.56,27.87,1.6,41.84,2.18,1.91.08,3.81.12,5.72.12v-1.82c-11.59.05-23.22-.34-34.65-1.75-6.81-.84-13.57-1.64-20.42-2.21-7.17-.6-14.17.22-21.32,1.04-7.35.84-14.4,2.85-21.68,4.05-3.69.61-7.41.97-11.13,1.28-3.13.26-8.19,1.63-11.12.42,2.65-1.76,7.72-1.69,10.82-2.31,3.37-.67,6.66-1.59,9.94-2.63,6.76-2.15,13.48-5.21,20.47-6.37,15-2.49,30.13-2.97,44.99-.22,11.36,2.1,22.63,3.31,34.1,3.85v-1.03c-11.57-.62-22.95-1.97-34.41-4.09-14.41-2.68-29.37-2.2-43.9.32-7.1,1.23-13.89,4.07-20.73,6.35-7.53,2.5-15.5,4.07-23.28,5.37-.15-.55,38.34-14.39,42.14-15.66,14.22-4.74,30.47-6.68,45.22-4.96,11.7,1.37,23.31,3.5,34.96,5.36v-2.36c-6.09-.74-11.99-2.29-18.03-3.29-9.22-1.52-18.57-2.98-27.96-2.98-4.35,0-8.71.31-13.06,1.08M106.92,217.71c-7.66.72-15.28,1.6-22.92,2.47-6.86.78-13.5,1.4-20.34,1.61-.16,2.49,6.14,2.99,7.88,3.15,4.09.38,7.79,1.56,11.77,2.55,7.65,1.9,15.42,2.86,23.27,3.64,15.61,1.56,31.48,1.98,46.95,4.61,14.91,2.53,29.15,8.12,44.17,10.14,9.82,1.32,19.72.73,29.51,1.38v-1.52c-.06,0-.11-.01-.16-.02-8.23-.75-16.42-1.25-24.68-1.55-7.54-.27-14.16-1.94-21.41-3.82-7.78-2.02-15.48-4.53-23.33-6.27-8.15-1.81-16.43-2.13-24.78-2.46-16.33-.64-32.6-2.3-48.38-6.48.16-.78,9.7-.72,15.25-.67,1.77.02,3.14.04,3.66.03,6.42-.12,12.74-.36,19.13.18,5.98.5,11.87,1.44,17.86,1.82,6.33.41,12.48.77,18.7,1.93,12.8,2.4,25.38,5.54,38.28,7.48,9.93,1.49,19.89,2.89,29.85,4.32v-2.64c-1.76-.32-3.51-.62-5.27-.9-7.84-1.25-15.75-1.78-23.59-2.84-7.72-1.05-15.34-3.03-23.04-4.26-7.76-1.24-15.37-2.79-23.08-4.27-7.89-1.51-15.77-1.93-23.79-2.35-6.06-.31-12.18-.29-18.27-.27-1.95,0-3.9.01-5.85.01-2.86,0-5.82.21-8.79.42-4.82.35-9.69.69-14.24.1.02-1.14,30.76-4.47,33.87-4.74,13.04-1.12,27.14-.33,40.05,1.24,12.79,1.55,25.04,5.27,37.94,6.26,11.5.88,22.87,1.44,34.08,4.09v-3.31c-5.56-1.73-11.28-2.5-17.15-2.99-3.1-.26-6.22-.24-9.33-.22-3.74.02-7.49.04-11.21-.42-13.47-1.66-26.62-4.87-40.17-6.17-5.31-.51-10.56-.72-15.8-.72-8.84,0-17.64.61-26.63,1.46M208.93,201.75c-6.45-1.1-12.37-3.27-18.55-5.3-6.07-2-12.02-3.54-18.3-4.73-6.02-1.15-11.69-3.31-17.85-4.16-13.17-1.8-26.66-.19-39.8-2.08-12.74-1.84-24.86-5.96-37.48-8.35-6.92-1.31-14-1.09-20.94-2.17-5.82-.9-13.94-1.38-18.51-5.48,12.32,1.63,24.53,4.01,36.85,5.67,7.4,1,14.9.76,22.39.53,5.59-.17,11.18-.35,16.73-.01,12.51.76,24.54,2.93,36.75,5.48,12.4,2.58,24.64,4.8,37.17,6.74,14.05,2.19,27.86,8.18,38.87,17.08h0c-.14,0-15.38-2.88-17.34-3.21M30.6,168.01c-.2,1.89,6.4,3.92,7.66,4.52,3.34,1.56,6.6,3.34,9.91,4.98,13.96,6.93,26.85,13.84,42.6,15.82,15.3,1.92,30.99,1.15,46.17,3.75,15.29,2.61,29.18,9.92,44.49,12.53,8.21,1.4,16.13,1.08,24.44.62,4.38-.25,8.82-.69,13.2-.59,2.74.06,5.44.53,8.13,1.08v-1.36c-1.13-.09-2.35-.22-3.52-.35-2.48-.26-4.74-.53-5.4-.51-5.81.18-11.56.35-17.36.41-6.17.06-11.96.01-18-1.39-6.42-1.48-12.69-3.63-18.96-5.62-12.25-3.87-24.5-7.77-37.51-8.37-13.17-.61-25.67-1.66-38.6-4.28-6.93-1.41-13.84-2.78-20.47-5.27-7.17-2.68-13.96-6.11-20.91-9.29.11-.25,15.1,2.55,16.82,2.75,6.08.71,12.17,1.38,18.21,2.3,6.1.93,11.94,2.63,17.83,4.35,6.09,1.77,12.23,2.45,18.51,3.31,6.4.88,12.84.86,19.28.84,5.93-.02,11.86-.03,17.77.65,12.66,1.45,24.71,7.41,36.97,10.52,6.68,1.69,13.43,3.09,20.24,4.15,4.69.73,10.32,1.47,15.08,3.31v-6.27c-12.02-6.82-24.72-12.35-38.53-14.58-6.91-1.12-13.92-1.56-20.83-2.63-7.52-1.17-14.83-3.08-22.26-4.66-15.43-3.29-31.69-5.59-47.53-5.9-16.12-.31-31.78-.17-47.64-3.06-1.56-.28-12.21-2.45-17.22-2.45-1.53,0-2.54.2-2.59.72M169.22,29.11c.17,1.2,1.86,3.02,2.47,4.1,1,1.75,1.97,3.52,2.95,5.29,1.78,3.22,3.58,6.43,5.25,9.72,3.61,7.11,7.31,14.36,10.25,21.79,5.23,13.23,10.02,26.6,13.68,40.4,4.39,16.55,8.37,33.13,15.43,48.73,2.54,5.62,5.44,11.04,7.96,16.65v-6.62c-.03-.07-.06-.14-.09-.2-2.75-6.43-6.17-12.55-8.82-19.04-2.89-7.08-4.27-14.77-6.54-22.07-4.28-13.73-8.45-27.4-13.27-40.95-2.37-6.67-4.41-13.58-7.42-19.97-3.17-6.74-6.58-13.34-9.72-20.09,5.67,4.47,8.27,12.42,11.46,18.66,3.33,6.52,6.54,13.1,9.88,19.61,6.75,13.18,9.65,27.23,13.9,41.35,2.87,9.55,6.74,19.01,10.63,28.35v-3.14c-4.35-10.67-8.64-21.48-11.48-32.56-1.9-7.43-3.84-14.89-6.45-22.09-2.68-7.39-6.68-14.06-9.94-21.16-3.13-6.81-6.56-13.77-10.15-20.33-3.6-6.56-9.72-11.28-12.8-18.11,2.85.49,6.2,6.59,7.84,8.75,2.4,3.16,4.81,6.32,7.24,9.44,4.91,6.31,9.83,12.87,13.65,19.95,7.28,13.5,11.24,28.42,16.67,42.7,1.95,5.12,3.55,10.36,5.42,15.51v-8.31c-3.57-9.79-6.53-19.89-10.41-29.55-5.48-13.65-12.36-25.99-20.76-37.92-4.33-6.15-9.18-11.81-14.2-17.38-2.16-2.4-4.13-4.97-6.26-7.4-1.3-1.47-2.67-2.96-4.22-4.16-.71-.55-1.42-1.16-1.83-1.16-.3,0-.44.32-.31,1.22M106.47,158.62c-12.45-.15-25.15-2.4-37.3-4.8-6.6-1.3-13.19-2.71-19.79-4.01-6.54-1.29-12.85-4.82-18.69-7.88,5.18-1.26,11.33.41,16.36,1.37,6.22,1.19,12.38,2.74,18.58,4.07,11.78,2.52,22.77,4.6,34.96,4.36,6.13-.12,12.26-.8,18.38-1.2,6.51-.43,12.99-.05,19.48.19,11.92.44,24.11,3.55,35.37,7.2,13.23,4.28,26.35,11.21,37.21,19.82-.29,1.06-12.85-5.25-14.17-5.88-5.56-2.66-11.42-4.69-17.34-6.41-5.79-1.69-11.34-3.88-17.26-5.18-6.25-1.38-12.71-2.23-19.11-2.75-7.01-.57-14.07-.07-21.12.43-4.82.34-9.63.68-14.42.68-.38,0-.75,0-1.13,0M103.35,139.58c7.91-.65,15.81-1.3,23.49.05,14.36,2.53,28.34,6.37,42.09,11.07,13.24,4.52,24.4,10.8,35.23,19.57-.3.47-16.74-8.47-18.56-9.23-6.33-2.61-12.87-4.77-19.41-6.83-13.27-4.18-27.18-5.02-41.09-5.28-5.39-.1-10.74.27-16.08.64-8.64.6-17.24,1.2-25.92-.2-6.6-1.07-13.22-2.57-19.64-4.37-6.44-1.8-13.04-2.74-19.56-4.21,2.07-1.37,6.79-1.03,9.28-1.27,3.61-.36,7.13-.25,10.73-.05,6.98.39,14.01.17,20.99.68,1.65.12,3.31.17,4.97.17,4.47,0,8.99-.37,13.5-.74M165.77,138.99c-3.19-1.13-6.29-2.41-9.34-3.86-6.63-3.15-13.14-6.57-19.88-9.5-6.48-2.81-13.41-3.82-20.33-5.05-7.32-1.3-14.56-2.88-21.84-4.33-13.97-2.79-28.08-5.38-41.76-9.32-6.45-1.86-12.33-4.29-18.34-7.22-6.68-3.25-12.67-5.78-18.6-10.4.63-1.01,18.33,6.44,20.36,7.19,6.19,2.28,12.21,5.08,18.5,7.08,13.61,4.32,28.21,3.75,41.85,7.87,6.81,2.06,13.45,4.56,20.23,6.67,6.86,2.14,14.13,2.64,21.03,4.58,13.05,3.67,24.78,11.77,36.16,18.89-.13.01-.26.02-.39.02-2.39,0-5.55-1.88-7.66-2.62M145.28,123.25c-6.17-2.24-12.52-3.13-18.97-4.27-12.59-2.21-23.78-8.49-36.43-10.49-12.63-2-25.95-2.59-37.94-7.16-5.92-2.26-11.73-4.69-17.69-6.87-3.22-1.18-6.31-2.68-9.54-3.84-3.1-1.11-6.4-1.72-9.38-3.11.08-.21,35.04,6.57,38.34,7.13,6.56,1.11,13.31,1.77,19.76,3.37,5.92,1.47,11.82,3.82,17.47,6.11,5.67,2.3,11.36,4.36,17.41,5.51,6.21,1.18,12.22,1.98,18.24,3.98,6.24,2.08,11.28,5.07,17.03,8.09,6.05,3.18,12.36,5.43,17.74,9.77-5.42-2.75-10.26-6.12-16.04-8.22M140.99,115.98c-3.01-1.17-5.85-2.5-8.69-4.03-6.15-3.3-12.35-6.51-18.53-9.76-5.62-2.95-11.24-5.86-16.58-9.31-5.95-3.84-11.23-8.55-17.07-12.52-5.49-3.73-11.17-7.27-17.15-10.17-5.95-2.88-12.17-5.24-17.95-8.44-3.24-1.79-33.46-20.19-32.99-20.92.24.23.48.45.73.68,6.12,2.5,11.74,6.35,17.74,9.18,5.86,2.75,11.77,5.4,17.63,8.15,12.31,5.78,24.2,11.38,35.29,19.36,10.7,7.71,20.62,16.11,32.01,22.92,11.24,6.73,23.62,10.91,34.44,18.37-.14.02-.28.03-.43.03-2.5,0-6.2-2.68-8.45-3.55M135.25,109.93c-2.85-1.25-5.65-2.58-8.47-3.89-5.63-2.61-11.02-5.88-16.22-9.26-10.22-6.66-19.33-14.75-29.39-21.59-10.72-7.29-22.24-12.46-33.93-17.94-5.62-2.63-11.23-5.26-16.84-7.9-5.27-2.48-11.82-4.77-16.26-8.6,2.83,0,6.48,2.45,9.02,3.49,2.76,1.13,5.55,2.17,8.34,3.23,5.8,2.19,11.61,4.21,17.47,6.24,6.15,2.13,12.44,4.09,18.3,6.92,5.72,2.76,11,6.33,16.34,9.75,5.21,3.34,9.93,7.49,14.22,11.94,4.43,4.59,8.29,9.64,13.74,13.09,5.24,3.32,11.35,5.25,16.9,7.99,5.35,2.64,9.96,6.56,14.68,10.17-.04,0-.08,0-.12,0-2.11,0-5.92-2.82-7.78-3.63M202.24,158.13c-3.13-5.58-6.06-11.32-8.45-17.27-4.65-11.58-7.47-23.87-12.77-35.21-5.77-12.33-9.29-25.56-14.1-38.29-4.9-12.98-11.48-25.33-18.39-37.27,10.35,9.06,16.84,22.92,21.76,35.6,2.38,6.12,4.55,12.36,7.2,18.36,2.64,5.96,5.87,11.68,8.03,17.86,4.37,12.5,7.3,25.53,11.82,37.97,2.14,5.89,5.35,11.01,8.38,16.44,3.29,5.89,5.75,11.85,8.34,18.08-3.91-5.38-8.55-10.42-11.82-16.24M205.39,153.69c-3.74-6.44-6.79-12.88-9.09-20.02-4.29-13.31-7.2-27.13-13.08-39.82-5.84-12.61-10.36-25.8-16.19-38.4-6.1-13.19-15.46-23.14-24.45-34.25,2.27.03,5.96,5.2,7.37,6.85,2.34,2.73,4.6,5.54,6.94,8.27,4.3,5.01,8.18,10.12,11.94,15.55,8.44,12.18,13.02,25.25,17.08,39.49,3.92,13.76,9.26,26.55,15.26,39.46,5.91,12.72,11.82,26.04,13.03,40.37-.29-1.02-7.92-15.98-8.81-17.51M129.32,97.96c-4.45-3.78-9-7.43-13.49-11.16-4.57-3.8-8.5-8.48-12.67-12.72-17.28-17.59-33.14-36.53-47.98-56.28,5.2,3.06,9.76,7.84,14.35,11.74,4.66,3.95,9.03,8.14,13.45,12.35,8.89,8.47,15.81,18.5,24.36,27.26,8.2,8.4,17.14,15.77,25.02,24.54,8.27,9.22,15.68,19.17,23.33,28.92-8.72-8.24-17.25-16.88-26.39-24.64M149.78,112.03c-3.59-4.77-7.81-9.14-11.52-13.84-8.3-10.5-18.14-18.97-27.82-28.11-9.19-8.69-16.21-19.1-25.26-27.93-8.93-8.71-17.8-17.65-27.57-25.41,1.08-1.71,29.19,16.5,32.13,18.42,2.05,1.34,4.34,2.29,6.24,3.88,2.32,1.93,4.31,4.26,6.45,6.39,5.04,5.03,10.12,10,14.52,15.64,8.4,10.78,15.52,22.45,23.45,33.58,7.13,10.01,16.68,20.3,20.92,32.08-4.15-4.76-7.72-9.63-11.53-14.69M166.55,117.57c-3.89-4.79-7.05-9.6-9.65-15.23-2.63-5.69-5.55-11.22-8.12-16.94-2.65-5.89-6.17-11.28-8.9-17.09-5.05-10.75-11.34-20.14-18.47-29.62-1.75-2.33-17.28-21.36-21.51-26.8,9.23,8.3,19.87,15.15,28.21,24.4,4.04,4.48,7.71,8.81,10.55,14.2,2.82,5.36,5.38,10.91,7.8,16.48,9.63,22.2,18.42,44.76,31.35,65.21-4.04-4.61-7.39-9.84-11.25-14.6M98.83,10.44c.07.11.14.22.21.34-.15-.21-.23-.33-.21-.34M177.13,128.69c-1.57-2.49-3.17-4.96-4.59-7.54-3.04-5.52-5.99-11.1-8.58-16.86-5.64-12.51-10.39-25.44-16.09-37.91-5.43-11.87-11.14-23.16-20.27-32.53-9.26-9.51-20.49-16.78-29.8-26.29,11.54,5.96,22.28,13.74,31.73,22.68,9.78,9.25,16.89,20.49,23.26,32.34,6.12,11.39,8.37,24.71,12.98,36.8,4.81,12.63,11.22,24.56,16.38,37.03-2.12-1.68-3.6-5.46-5.02-7.72M89.02.69c-1.13,1.56,3.74,6.04,4.74,7.25,8.32,10.02,17.07,19.63,24.7,30.23,7.54,10.46,14.51,21.58,20.66,32.96,7.02,12.97,12.31,27.06,19.92,39.64,3.76,6.22,7.89,12.27,12.23,18.08,1.11,1.49,12.12,14.15,11.95,14.4-2.45-1.67-4.72-3.5-7.25-5.07-2.86-1.77-16.13-18.12-19.82-24.27-3.51-5.85-6.92-11.87-10.99-17.32-4.23-5.67-9-11.06-12.78-17.05-7.48-11.85-14.8-24.13-25.24-33.61-9.85-8.95-21.28-16.64-32.75-23.34-6.45-3.76-12.6-7.83-19.35-11.07-3.17-1.52-6.78-2.87-9.58-5.01-1.71-1.31-4.68-6.16-7.16-5.64.95,5.13,6.02,9.01,9.59,12.32,3.89,3.6,7.45,7.71,10.75,11.87,3.5,4.42,7.38,8.55,10.7,13.11,3.47,4.78,6.5,9.86,10.1,14.54,7.06,9.18,14.48,17.89,23.13,25.57,4.16,3.69,8.44,7.24,12.59,10.95,2.34,2.09,4.7,4.18,7.01,6.31,1.38,1.27,4.5,3.35,5.02,5.21-8.86-4.61-16.92-8.87-23.98-16.12-7-7.19-13.66-14.22-22.11-19.74-17.35-11.35-39.3-14.04-58.07-22.19-4.22-1.83-8.48-3.59-12.65-5.54-2.46-1.15-4.96-2.21-7.38-3.43-.93-.46-3.01-1.9-2.61.38.22,1.24,2.96,2.55,3.97,3.35,1.87,1.47,3.73,2.96,5.64,4.38,4.04,2.99,8.08,6.01,12.19,8.89,8.56,6.02,17.5,11.4,26.64,16.48,8.39,4.66,17.65,7.43,26,12.25,10.12,5.85,19.02,13.58,29.11,19.47,4.8,2.8,9.82,4.88,14.82,7.28,2.54,1.22,4.92,2.7,7.38,4.06,1.76.98,5.81,2.15,6.79,3.9-5.68-.98-11.11-4.11-16.72-5.55-5.36-1.38-10.92-2.16-16.32-3.39-10.97-2.49-21.02-7.77-32.06-10.31-11.15-2.56-22.7-2.9-33.83-5.6-5.72-1.39-11.46-2.73-17.17-4.17-2.76-.7-5.47-1.46-8.16-2.38-1.82-.63-4.12-1.86-5.97-.88,1.42,1.79,4.54,2.51,6.45,3.97,3.23,2.47,6.26,5.21,9.52,7.65,5.62,4.21,11.83,7.32,18.38,9.75,7.08,2.63,14.23,5.02,21.45,7.26,6.66,2.06,13.57,4.55,20.51,5.51,7.22.99,14.2,3,21.38,4.11,6.8,1.05,13.65,1.85,20.42,3.06,6.88,1.23,14.43,3.18,20.73,6.16,6.3,2.97,11.78,7.07,18.41,9.47,13.83,4.98,29.37,10.66,37.74,23.6-11.95-7.07-23.54-13.34-36.91-17.42-14.15-4.32-28.67-7.46-43.54-7.79-7.15-.16-14.22.41-21.36.42-7.06,0-14.07-.64-21.11-.83-6.8-.18-13.51.22-20.3.73-6.69.5-13.35.23-20.06.75-3.41.26-6.8.18-10.2.13-1.52-.02-2.95-.06-4.46-.32-1.05-.18-3.49-1.29-4.45-.93-2.21.85,1.85,2.55,2.79,3.01,2.92,1.42,6.23,1.55,9.18,2.93,6.15,2.87,11.92,5.84,18.47,7.82,6.74,2.04,13.69,3.65,20.65,4.82,14.46,2.42,29.38,4.37,44.07,4.88,6.75.24,13.54-.3,20.3-.65,7.25-.37,13.95-.03,21.11.97,8.01,1.13,15.74,2.4,23.43,4.92,7.64,2.5,14.82,6.35,22.11,9.69,3.34,1.53,6.75,2.76,10.35,3.58,3.35.76,5.92.92,8.2,3.69,1.06,1.29,7.35,8.99,11.22,14.32v-3.73c-1.08-1.64-2.13-3.27-3.16-4.85-1.86-2.85-3.96-5.68-5.65-8.62-1.7-2.96-1.46-6.54-2.02-9.94-2.55-15.56-8.16-30.58-14.62-44.75-3.07-6.73-6.86-13.44-9.03-20.56-2.19-7.19-3.2-14.64-5.73-21.74-2.47-6.92-4.45-14.39-7.93-20.86-3.62-6.74-8.53-12.74-12.84-18.99-4.26-6.18-9.46-11.75-14.91-16.86-5.72-5.37-11.91-12.15-19.04-15.48-.92,1.5,4.99,7.38,5.96,8.76,1.95,2.76,4.06,5.38,6.04,8.12,4.02,5.56,6.87,11.89,9.92,18.03,6.89,13.89,12.45,27.94,17.47,42.64,2.42,7.09,5.24,13.84,8.39,20.6,3.26,7.01,5.43,14.37,8.01,21.66,2.43,6.9,4.76,14.01,7.8,20.64,3.03,6.6,8.12,11.82,11.5,18.15-4.09-4.41-8.07-8.91-12.08-13.4-4.18-4.68-5.87-10.5-8.77-16.04-6.05-11.58-12.12-23.74-16.48-36.13-4.19-11.92-6.45-24.3-11.62-35.83-5.43-12.1-11.95-23.17-21.09-32.75-3.88-4.07-7.8-8.33-12.17-11.86-4.98-4.02-10.66-7.09-15.76-10.95-4.75-3.59-9.9-6.58-14.85-9.87-.99-.66-2.79-2.57-4.24-2.57-.47,0-.9.2-1.26.69"/>
    </clipPath>
    <linearGradient id="linear-gradient" x1="-3809.79" y1="3887.7" x2="-3809.6" y2="3887.7" gradientTransform="translate(-8764595.21 8588986.18) rotate(90) scale(2254.47 -2254.47)" gradientUnits="userSpaceOnUse">
      <stop offset="0" stop-color="#3d7f32"/>
      <stop offset=".49" stop-color="#007481"/>
      <stop offset=".98" stop-color="#784056"/>
      <stop offset="1" stop-color="#784056"/>
    </linearGradient>
  </defs>
  <g id="Layer_1-2" data-name="Layer 1">
    <g class="cls-1">
      <rect class="cls-3" width="227.2" height="341.77"/>
    </g>
  </g>
</svg>