<?xml version="1.0" encoding="UTF-8"?>
<svg id="Layer_2" data-name="Layer 2" xmlns="http://www.w3.org/2000/svg" xmlns:xlink="http://www.w3.org/1999/xlink" viewBox="0 0 234.88 341.77">
  <defs>
    <style>
      .cls-1 {
        clip-path: url(#clippath);
      }

      .cls-2 {
        fill: none;
      }

      .cls-2, .cls-3 {
        stroke-width: 0px;
      }

      .cls-3 {
        fill: url(#linear-gradient);
      }
    </style>
    <clipPath id="clippath">
      <path class="cls-2" d="M222.5,304.59c-2.91-.55-5.82-1.05-8.75-1.47-6.05-.87-12.18-.94-18.27-1.17-12.61-.48-25.48-1.1-37.37-6.17-11.12-4.75-22.27-11.49-30.13-20.89-3.81-4.56-7.98-9.87-10.14-15.46-2.36-6.11-2.75-13.28-4.04-19.65.49-.14,3.07,4.01,3.66,4.69,1.51,1.76,3.22,3.18,5.14,4.45,4.04,2.67,8.29,4.56,12.67,6.53,4.48,2.02,8.96,4.21,13.63,5.74,4.45,1.46,9.18,1.74,13.78,2.39,9.27,1.3,18.2,1.2,27.46.23,4.02-.42,8.27-1.17,12.23-1.98,2.29-.47,4.52-1.41,6.73-2.14,1.7-.57,3.62-.72,5.08-1.8,1.35,1.65,1.04,5.58-.52,6.89-1.27,1.07-2.98.85-4.67.64-1.07-.14-2.13-.27-3.06-.09-7.31,1.47-3.28,10.27-.36,13.88,2.28,2.82,5,4.19,8.25,5.6,3.56,1.54,6.58,3.35,9.44,6.03,2.1,1.97,4.22,4.64,5.43,7.27,1.14,2.47,2.6,7.07,2.18,9.85-2.98-1.2-5.06-2.73-8.37-3.35M73.09,274.4c4.22-1.51,8.68-2.7,12.47-5.13,3.73-2.39,6.6-5.72,9.54-8.98,6.24-6.93,11.16-14.17,16.18-22.02.52,2.92.98,5.84,1.53,8.75.67,3.52,2.57,7.58,2.56,11.13,0,2.65-1.89,6.1-2.93,8.49-1.46,3.38-3.5,6.48-5.61,9.46-8.15,11.5-18.7,20.52-31.51,26.52-12.28,5.75-27.49,8.61-41.16,7.8-6.8-.4-14.72-1.22-20.68-4.98-1.48-.93-5.86-3.46-2.57-4.89,1.38-.6,3.32-.3,5.21.01,1.31.21,2.59.42,3.64.33,3.22-.27,6.82-.83,8.98-3.38,2.43-2.87,2.62-5.62.61-8.69-1.85-2.82-3.61-5.79-5.39-8.67-1.85-2.99-4.55-7.38-3.75-11.01,8.38,6.48,19.27,9.17,30.1,9.18,7.95,0,15.87-1.45,22.77-3.92M72.98,241.92c6.95-1.02,14.08-3.29,19.91-7.19,5.86-3.92,10.86-9.76,15.61-14.93.8,4.92,2.87,11.49.81,16.16-2.67,6.06-6.92,12.04-11.01,17.18-8.56,10.74-18.68,18.14-32.22,21.54-12.76,3.2-27.33,2.02-39.24-4.42-2.02-1.09-4.79-2.86-5.51-5.23-.76-2.52,1.67-3.9,4.03-4,2.82-.12,5.7,1.35,8.34,2.15,2.1.64,5.81,2.05,7.82,1.07,2.95-1.45,3.75-6.72,3.85-9.63.11-3.15-1.3-5.86-2.91-8.51-3.49-5.75-9.69-12.62-7.76-19.7,1.69,3.64,5,6.26,7.86,8.98,2.54,2.42,5.26,4.25,8.42,5.75,2.49,1.18,5.88,1.16,8.86,1.14.72,0,1.42,0,2.07,0,1.43.03,2.86.06,4.28.06,2.27,0,4.53-.08,6.79-.42M144.56,235.78c4.12-.61,8.8-1.11,12.46-3.13,16.47-9.11,28.94-23.5,38-39.82,6.65,5.16.49,12.04-.92,18.08-1.42,6.05-1.96,12.55-.62,18.74,1.52,7.01,5.09,11.03,10.9,15.1,2.61,1.83,4.96,3.43,6.82,6.08.6.86,1.76,2.26,1.93,3.27.27,1.58-.29,1.74-1.69,2.69-5.34,3.65-12.7,4.37-19.02,5.17-6.09.77-12.06,1.23-18.25.91-13.65-.71-27.3-3.35-39.71-9.66-6.77-3.44-13.21-7.81-18.18-13.62-2.71-3.18-3.58-5.42-4.14-9.54-.57-4.18-1.04-8.37-1.59-12.55,1.59,1.69,2.37,4.14,3.79,6.01,1.27,1.66,2.66,3.23,4.19,4.64,3.36,3.1,7.52,5.85,11.94,6.93,2.87.71,5.89,1.07,8.89,1.07,1.76,0,3.51-.12,5.21-.38M49.42,224.64c4.78-1.55,4.38-8.02,3-11.87-3.04-8.44-12.09-17.63-8.13-27.03,4.79,11.34,15.6,20.32,27.15,24.02,5.78,1.85,13.3,1.86,19.07.36,6.54-1.69,11.51-5.06,15.75-10.18.96,1.02.8,4.79.94,6.15.23,2.21.41,4.43.51,6.65.18,3.9-3.92,8.08-6.25,11.07-5.68,7.27-14.08,12.65-22.97,15.1-4.07,1.12-8.01,1.3-12.26,1.33-4.54.03-9.15.82-13.52-.88-7.29-2.84-14.07-7.71-16.61-15.58,2.35-1.14,4.68-.43,7.02.27,1.45.44,2.9.87,4.36.87.65,0,1.3-.09,1.95-.3M60.27,180.4c4.58-6.83-2.05-12.14-5.26-17.84-1.74-3.08-3.18-6.83-3.67-10.31-.28-1.99-1.1-8.68,2.66-8.51,1.68.07.47-.14,1.1,1.01.36.66.3,2.05.46,2.79.36,1.66.88,3.28,1.51,4.85,1.38,3.43,3.31,6.86,5.48,9.87,4.72,6.56,11.93,14.65,19.87,17.16,6.8,2.15,16.69,4.28,22.37-1.03.42,3.23.38,6.51.68,9.75.16,1.73.81,4.2.48,5.92-.34,1.74-1.85,3.55-2.87,4.96-4.41,6.07-11.72,10.48-19.51,10.16-14.55-.6-31.12-8.32-37.32-22.56-.64-1.46-.96-1.79.34-2.45,1.15-.58,4.3,0,5.58.02h.19c3.24,0,6.05-.99,7.92-3.79M124.25,199.84c5.56-.67,10.26-4.23,14.67-7.4,9.17-6.59,15.54-15.44,21.59-24.89,3.03-4.74,5.69-9.71,7.72-14.99.87-2.26,3.11-13.99,5.69-13.42,4.69,1.04.31,12.08-.36,14.42-1.62,5.63-2.22,10.93-1.91,16.82.3,5.64,1.05,11.5,5.41,15.67,4.61,4.41,10.04,4.75,15.87,5.69-8.73,19.53-23.96,35.32-44.75,41.64-10.19,3.1-20.54.88-28.01-7.15-3.82-4.11-6.77-8.43-9.32-13.4-1.39-2.7-1.31-5.19-1.56-8.14-.23-2.72-.7-5.42-.89-8.15,3.6,2.64,7.53,3.57,11.7,3.57,1.37,0,2.76-.1,4.17-.27M59.99,143.08c.94-.14,1.62-.53,2.4-1.04,1.75-1.16,3.72-2.81,4.66-4.72,2.26-4.57-.53-11.59-1.09-16.41-.34-2.89-.92-5.8-.71-8.71.14-1.93.63-6.14,2.78-6.93.57,2.27.41,4.67.94,6.97.56,2.46,1.47,4.87,2.47,7.19,1.92,4.43,4.64,8.71,7.53,12.58,3,4.02,6.31,7.42,11.1,9.11,5.21,1.83,8.75,1.4,13.84-.36-.19,10.67.41,21.38.22,32.04-.06,3.51-3.31,6.76-6.74,7.34-4.68.78-10.9-1.29-15.15-3.26-9.65-4.48-16.21-11.47-21.36-20.78-1.2-2.18-6.28-10.8-3.61-12.93.37-.3,1.07-.22,1.71-.14.3.04.58.07.81.07.08,0,.15,0,.21-.01M124.65,151.36c6.24-4.17,9.59-11.8,13.55-18.01,3.87-6.06,7.84-12.02,10.81-18.61,3.01-6.69,4.87-13.74,7.4-20.61,3.91,1.73,3.59,8.98,3.12,12.24-.73,5.08-1.57,10.28-2.03,15.4-.42,4.79-.37,10.3,1.98,14.74,2.67,5.03,7.62,2.61,12.01,2.23-.23,2.67-1.97,5.48-2.79,8.04-.93,2.94-1.61,5.91-2.92,8.71-2.62,5.62-5.75,10.83-9.33,15.88-6.35,8.95-14.5,18.17-24.37,23.28-4.11,2.13-9.1,3.79-13.81,3.11-2.75-.4-5.51-1.06-7.65-2.99-2.52-2.27-2.94-3.8-3.11-7-.61-11.65-1.23-23.21-1.39-34.87,2.27,1.49,4.8,2.12,7.35,2.12,3.95,0,7.95-1.51,11.18-3.66M96.53,135.66c-3.26-1.56-6.96-2.04-10.19-3.7-3.36-1.73-5.7-4.67-7.51-7.92-3.32-5.97-6.87-13.23-6.42-20.18,6.07-.24,8.7-2.44,10-8.48,1.36-6.33-.27-13.05-.5-19.47-.22-6.04-.79-12.46.59-18.35,1.16-4.93,2.68-11.76,6.05-15.58.3,7.11.16,13.81,1.62,20.85,1.29,6.22,3.08,12.07,5.98,17.82,3.04,6.04,6.63,11.83,8.46,18.35.81,2.86,2.21,5.71,2.37,8.69.17,3.17-.12,6.64-.51,9.78-.43,3.39-1.04,6.75-1.49,10.14-.45,3.39-.19,7.8-2.52,10.54-4,4.71-12.24,2.61-16.5-.76-5.07-4.02-8.43-10.18-11.43-15.77-1-1.85-6.63-17.38-3.85-17.41,1.14-.01.91,3.09,1.14,4.26.33,1.7.71,3.41,1.21,5.07,1.18,3.85,3.19,7.71,5.19,11.21,1.74,3.05,4.07,6.23,7.23,7.9,1.26.67,7.02,3.47,9.78,3.47.62,0,1.09-.14,1.32-.49M110.2,153.38c-3.19-.6-4.1-2.4-4.02-5.47.09-3.3-.13-6.77.29-10.03.84-6.5,1.64-12.89,2.11-19.47.23-3.19.28-6.38.42-9.57.16-3.66-.3-8.22.63-11.73.71-2.7,3.8-5.26,5.6-7.31,2.12-2.41,4.36-4.71,6.49-7.11,4.85-5.47,8.2-12.76,10.69-19.61,1.22-3.37,2.09-6.79,2.95-10.28.78-3.17,2.94-7.65,1.78-11,.63-.44,3.7,6.6,4.11,7.54,1.53,3.49,1.73,6.8,1.48,10.53-.45,6.83-1.66,13.58-2.11,20.42-.41,6.2-.53,13.08,2.33,18.96,1.29,2.66,4.38,1.34,5.91-.55,1.38-1.7,3.08-6.36,6.09-4.92-1.79,6.45-5.3,12.5-8.02,18.56-2.83,6.29-5.21,12.72-8.98,18.51-3.69,5.66-7.65,10.88-12.28,15.79-3.49,3.71-7.89,6.96-13.1,6.96-.77,0-1.56-.07-2.36-.22M112.14,46.54c.8-7.13,1.64-14.37,3.04-21.39,1.42-7.17,2.09-14.87,4.03-21.87,6.81,6.71,2.36,14.86,4.3,22.87.92,3.83,4.08,6.57,6.99,8.96,1.55,1.27,3.9,2.6,5.06,4.24,1.04,1.49.4,2.95.03,4.68-1.94,9.2-4.99,18.22-9.25,26.55-3.91,7.65-8.43,16.73-16.51,20.45.09-14.9.66-29.71,2.31-44.48M103.8,83.35c-7.73-9.69-10.44-21.5-11.32-33.47-.22-2.93-.07-5.83.12-8.74.18-2.83-.41-5.07,1.65-7.17,4.43-4.51,9.11-8.75,12.1-14.43,2.59-4.92,3.4-11.34,7.22-15.44,2.28-2.45,2.95-.81,2.62,1.83-.39,3.16-.81,6.31-1.15,9.47-1.36,12.74-4.67,24.98-5.88,37.79-1.37,14.42-.97,28.96-1.83,43.42-1.68-1.26-2.76-5.07-3.67-6.87-1.18-2.31-2.35-4.62-3.59-6.9-2.5-4.55-4.58-9.25-6.17-14.19-1.68-5.22-3.59-10.61-3.85-16.09-.23-4.78-.85-11.67,1.85-15.79-.32,8.56-.76,17.16,1.26,25.65.58,2.43,7.26,21.07,10.25,21.07.15,0,.29-.05.42-.15M113.97.73c-3.31,2.59-5.13,7.13-6.34,11.01-1.49,4.75-3.83,8.79-7.15,12.47-3.45,3.82-7.86,6.64-10.92,10.82-5.83,7.96-10.33,18.9-10.04,29.03.29,10.36,2.73,21.05.73,31.32-.72,3.7-2.91,6.73-6.83,7-.75.05-1.5-.03-2.24-.12-1.33-.16-2.65-.31-3.98.33-2.24,1.09-3.11,3.85-3.59,6.14-1.07,5.06.06,9.83,1,14.87.92,4.94,2.58,10.29-1.51,14.07-1.37,1.27-3.02,2.33-4.84,2.74-1.97.44-4.31.21-6.12,1.3-3.69,2.22-3.74,8.19-2.96,11.91,1.04,4.95,2.67,8.55,5.62,12.66,2.42,3.37,6.4,6.87,5.49,11.37-1.03,5.07-5.97,5.38-10.23,4.99-5.28-.48-8.99.29-8.93,6.41.08,9.4,7.68,17.5,9.29,26.74.74,4.24-1.47,8.96-6.22,7.5-3.77-1.15-9.62-3.9-11.34,1.52-1.3,4.08.71,9.86,2.49,13.58,2.13,4.46,5.51,8.31,7.08,13,.96,2.87,1.6,8.64-1.68,10.12-4,1.8-10.28-.92-14.45-1.81-2.12-.45-4.21-1.08-5.91.27-1.53,1.22-1.98,3.42-2.19,5.27-.6,5.36,1.05,10,3.55,14.76,1.8,3.44,5.65,7.65,5.95,11.5.46,5.84-2.98,7.75-8.15,7.73-3.11,0-8.67-2-10.84,1.06-2.43,3.41.98,9.31,2.99,12.18,2.57,3.69,6.27,5.53,9.18,8.74,3.65,4.02-2.56,6.42-5.84,6.13-3.75-.34-9.12-2.51-12,.87-3.01,3.53.21,8.34,2.63,11.34.6.75,1.22,1.49,1.86,2.23h3.13c-.78-.89-1.58-1.73-2.39-2.47-2.36-2.14-5.24-4.17-4.58-7.95,5.32,4.29,10.72,7.96,16.58,10.42h7.19c-8.64-1.74-16.64-5.67-22.61-12.84,1.36-.28,3.48-.19,5.83-.1,6.02.24,13.52.48,13.37-5.67-.09-3.87-4.22-5.48-6.81-7.53-2.63-2.08-7.31-6.33-7.27-9.98,2.22.34,4.63,1.86,6.72,2.71,2.58,1.04,5.23,1.89,7.9,2.64,5.03,1.41,10.22,1.83,15.4,2,10.93.37,21.4-2.05,31.32-6.35,9.54-4.13,18.56-9.35,25.95-16.72,3.71-3.7,7.02-7.69,10.24-11.82,1.6-2.05,3.18-4.11,4.58-6.3,1.2-1.87,2.24-5.18,3.9-6.58,1.81,4.84,1.57,11.05,2.13,16.13.32,2.81.35,3.95-1.28,6.2-1.65,2.28-3.13,4.77-5.04,6.84-3.47,3.76-7.6,6.92-11.12,10.66-3.87,4.12-7.91,8.03-12.08,11.84-7.8,7.12-16.08,13.52-25.54,18.37-5.32,2.73-10.8,5.16-16.56,6.49h8.31c5.22-1.8,10.21-4.27,14.66-7.18,8.41-5.51,16.3-10.75,23.6-17.76,4.17-4,8.38-7.97,12.55-11.97,4.39-4.21,7.41-9.48,11.49-13.93.96.61-6.53,18.16-7.29,20.25-2.61,7.24-6.33,14.44-11.04,20.49-2.73,3.51-5.68,6.9-8.81,10.1h2.18c4.16-4.47,8.04-9.21,11.46-14.26,3.37-4.97,6.04-10.35,8.49-15.84,1.39-3.12,2.46-6.13,3.31-9.44.71-2.77,1.86-6.15,3.95-8.15.14,4.53.34,9.09.05,13.61-.31,4.84-3.08,8.76-5.29,12.87-3.55,6.63-5.52,13.97-7.65,21.21h2.29c.92-3.28,1.85-6.57,2.9-9.86,1.56-4.88,3.12-9.87,5.98-14.14,1.17-1.75,2-3.36,4.09-3,2.71.48,3.13,3.4,3.91,5.63,1.75,4.97,1.99,9.59,2.72,14.76.31,2.21.81,4.42,1.41,6.61h2.33c-.69-2.96-1.24-5.91-1.24-7.81,1.57,2.63,3.23,5.24,4.97,7.81h1.31c-1.79-2.79-3.37-5.69-4.68-8.72-1.34-3.09-2.55-5.97-3.13-9.3-.57-3.24-1.32-6.05-2.92-8.97-3.09-5.67-3.56-12.01-3.36-18.26.94.37,1.49,2.74,1.91,3.54.94,1.8,1.99,3.56,2.99,5.33,1.78,3.15,3.79,6.14,6.11,8.92,2.01,2.41,4.44,4.39,6.12,7,2.06,3.21,5.27,5.65,8.24,8.03,6.06,4.87,13.28,7.15,20.44,9.77,2.54.93,5.08,1.81,7.62,2.64h8.02c-1.31-.52-2.62-1.11-4-1.48-10.36-2.78-20.01-6.46-28.88-12.73-8.89-6.28-15.87-15.17-21.54-24.37-6.29-10.22-9.49-21.69-10.59-33.51,2.36,2.05,4.04,4.87,6.19,7.13,2.54,2.67,5.24,5.3,8.15,7.57,5.93,4.63,11.98,8.25,18.91,11.09,12.96,5.33,25.78,6.75,39.49,7.93,6.53.57,13.32-.1,19.79.99,3.17.54,6.54,1.45,9.6,2.48,1.35.45,2.69,1,3.99,1.6.73.34,4.54,1.79,4.77,2.58.16.53-1.4,2.92-1.75,3.29-.84.89-2.32,1.57-3.48,1.85-1.35.32-2.83.03-4.31-.27-1.7-.34-3.37-.68-4.8-.08-2.52,1.07-2.53,5.19-2.07,7.52.67,3.37,2.48,6.77,4.52,9.53,2.12,2.86,4.81,5.3,7.71,7.33.78.55,1.6,1.05,2.43,1.54h3.42c-1.33-1.04-2.7-2.05-4.08-3.08-4.09-3.03-7.69-6.29-10.23-10.78-1.6-2.84-4.8-10.48.74-10.43,4.18.04,9.04.85,11.78-3.09,2.84-4.07,4.67-7.85,2.99-12.86-3.5-10.44-14.21-16.39-23-21.62-2.97-1.77-7.86-5.96-6.95-9.95.97-4.28,7.71-2.55,10.8-3.75,4.59-1.78,3.59-6.87,2.17-10.8-1.5-4.15-5.1-8.2-8.53-10.94-3.97-3.16-7.74-4.51-10.26-9.25-2.39-4.52-3.21-9.21-3.04-14.24.09-2.59.41-5.16.86-7.71.48-2.73,1.9-4.72,3.08-7.16,2.07-4.26,2.84-8.2.27-12.62-1.09-1.88-2.29-4.42-4.65-4.4-5.71.05-9.57-1.45-12.04-2.94-2.53-1.53-3.6-3.06-3.69-2.94-3.48-2.23-4.01-9.23-4.13-12.82-.17-5.46.83-10.75,1.95-16.03.86-4.07,3.4-10.91,1.19-14.95-.85-1.56-2.78-3.17-4.48-3.71-2.8-.89-4.13.79-6.44,1.78-9.31,4.01-5.91-18.36-5.24-22.16.91-5.22,1.63-9.83.37-15.12-.89-3.76-3.19-9.67-8-9.03-2.09.28-2.97,1.57-4.05,3.19-.71,1.07-1.93,4.13-3.48,3.47-1.31-.55-2.16-4.67-2.42-5.88-.56-2.64-.44-5.39-.71-8.06-.51-5.07-.21-9.53.12-14.56.32-4.91,1.16-9.79.72-14.74-.93-10.46-8.56-16.19-15.18-23.36-6.91-7.49-.81-17.88-4.9-26.28C122.42,2.62,119.04,0,116.21,0c-.82,0-1.59.22-2.25.73"/>
    </clipPath>
    <linearGradient id="linear-gradient" x1="-3460.92" y1="3888.18" x2="-3460.73" y2="3888.18" gradientTransform="translate(-8765668.36 7802456.39) rotate(90) scale(2254.47 -2254.47)" gradientUnits="userSpaceOnUse">
      <stop offset="0" stop-color="#3d7f32"/>
      <stop offset=".49" stop-color="#007481"/>
      <stop offset=".98" stop-color="#784056"/>
      <stop offset="1" stop-color="#784056"/>
    </linearGradient>
  </defs>
  <g id="Layer_1-2" data-name="Layer 1">
    <g class="cls-1">
      <rect class="cls-3" width="234.88" height="341.77"/>
    </g>
  </g>
</svg>