<?xml version="1.0" encoding="UTF-8"?>
<svg id="Layer_2" data-name="Layer 2" xmlns="http://www.w3.org/2000/svg" xmlns:xlink="http://www.w3.org/1999/xlink" viewBox="0 0 311.51 359.03">
  <defs>
    <style>
      .cls-1 {
        clip-path: url(#clippath);
      }

      .cls-2 {
        fill: none;
      }

      .cls-2, .cls-3 {
        stroke-width: 0px;
      }

      .cls-3 {
        fill: url(#linear-gradient);
      }
    </style>
    <clipPath id="clippath">
      <path class="cls-2" d="M3.24,118.06c3.39-4.49,5.94-9.29,9.31-13.81,3.07-4.11,6.91-7.61,11.01-11.03,8.28-6.92,19.7-13.42,30.04-16.07-3.88,4.4-7.91,8.72-11.32,13.36-3.18,4.33-5.26,8.74-10.05,12.14-4.75,3.37-10.49,6.78-15.7,9.35-1.75.87-10.88,6.15-12.94,6.15-.16,0-.28-.03-.35-.1M36.02,108.62c1.16-5.51,3.12-10.89,6.73-16.09,7.86-11.35,19.03-21.41,30.82-30.01-.88,6.23-.72,12.31-1.59,18.52-.78,5.64-3.72,11.35-6.94,16.76-3.59,6.02-8.43,11.28-14.31,16.03-5.16,4.17-11.24,7.61-16.61,11.64-.41-5.05.78-11.56,1.9-16.86M39.03,53.98c9.98-6.73,16.98-16.35,27.75-22.23,5.68-3.1,11.82-4.76,17.84-5.46,2.82-.33,5.56-.31,8.24-.1,1.35.11,6.18.14,6.76,1.18.44.79-3.49,5.13-4.25,6.23-1.53,2.21-2.44,3.31-4.91,4.99-5.64,3.83-11.76,7.21-18.07,9.63-7.84,3-18.3,6.72-26.81,6.72-2.36,0-4.57-.29-6.54-.95M90.55,80.9c.74-11.18-.82-22.05,1.97-33.51,1.29-5.32,3-9.41,6.7-14.35,3.66-4.88,7.59-9.51,11.5-14.27,3.18,9.51,4.28,21.57.57,32.57-1.82,5.41-4.86,10.92-8.26,16.03-1.13,1.7-10.49,13.55-12.35,13.55-.05,0-.09,0-.13-.03M126.36,0c-1.93,1.71-4.42,3.42-5.78,4.7-2.68,2.54-5.35,5.18-7.82,7.86-2.55,2.77-4.83,5.69-7.34,8.49-2.33,2.59-3.27,4.87-6.54,4.23-6.48-1.28-12.47-1.93-19.86.26-8.18,2.43-15.28,5.96-22.41,10.97-3.5,2.46-6.27,5.23-9.15,8.24-2.09,2.19-4.28,5.07-7.12,6.55-.63.33-6.92,2.84-6.89,3.8.02,1.14,6.57,1.1,7.37,1.18,7.11.7,13.13.4,20.7-2.05,7.93-2.57,15.02-5.76,22.57-9.59-4.15,4.82-5.71,10.57-9.91,15.19-2.23,2.46-5.19,4.23-7.85,6.3-3.07,2.4-5.84,5.3-8.93,7.62-2.55,1.9-5.45,2.29-8.37,3.23-3.42,1.1-6.8,2.47-10.06,4.13-6.4,3.26-12.29,7.01-17.75,11.59-5.52,4.63-10.37,9.99-13.91,15.74-1.54,2.5-2.75,5.04-4.66,7.43-.4.5-1.68,1.76-2.65,2.97v2.72c1.89-.22,5.2-2.4,6.34-2.97,3.17-1.59,6.31-3.22,9.48-4.78,7.03-3.47,13.57-7.15,19.75-11.94-2.17,6.39-2.44,12.04-3.04,18.3-.14,1.47-.3,2.93-.54,4.41-.08.48-1.01,3.42-.71,3.86,1.32,1.89,3.53-1.71,4.97-2.86,2.97-2.38,6.57-4.06,9.62-6.39,2.91-2.21,5.74-4.57,8.49-6.95,4.95-4.29,8.8-8.87,12.14-14.03,3.34-5.16,6.7-10.37,8.27-15.87,1.75-6.17,1.18-11.5,1.4-17.4.19-5.08,1.77-8.61,4.96-13.53,1.57-2.41,3.49-4.74,5.25-7.02,1.67-2.15,3.16-2.9,5.5-4.48.7.35-2.21,6.52-2.51,7.63-.77,2.84-1.11,5.68-1.32,8.47-.5,6.36.49,12.24.95,18.36.2,2.63-.95,5.99-.51,8.46.61,3.41,2.47.06,4.13-1.77,4.49-4.95,9.6-9.64,13.27-15.04,8.27-12.15,10.57-24.65,9.27-36.52-.31-2.81-.64-5.6-1.39-8.26-.82-2.9-2.16-4.14.48-7.23,4.05-4.74,8.57-9.84,13.57-14.02h-1.45ZM244.16,323.36c.81-5.03,1.28-10.54.57-15.25-.48-3.16-3.52-7-.01-10.14,6.13,6.38,11.67,13.15,14.65,21.53,1.49,4.2,1.87,8.6,1.74,13.3-.04,1.62.42,12.59-.82,13.14-6.05-7.32-18.04-10.73-16.12-22.59M297.32,324.86c.32-.55-2.61-4.59-2.94-5.33-2.14-4.76-4.19-9.49-7.55-13.54-3.16-3.81-6.52-7-11.03-9.59-4.57-2.62-9.87-4.01-15.22-5.56,5.03-2.16,10.72,1.22,14.17,3.01,4.44,2.31,8.11,5.29,11.6,8.53,4.27,3.97,5.95,8.43,7.84,13.8,1.75,4.98,4.62,9.12,7.72,13.32-3,.81-6.91-.51-9.6-.89-2.84-.4-5.7-.73-8.42-1.37-5.6-1.32-10.48-3.67-14.45-7-8.49-7.12-16.33-17.06-17.54-28.46,9.54-1.43,20.37,3.21,26.75,8.01,8.18,6.16,11.24,14.97,16.04,23.35.13.22,1.06,2.24,1.94,2.24.24,0,.48-.15.7-.53M228.49,345.03c-.62-2.98-1.55-5.86-2.63-8.64-1.09-2.82-2.47-5.47-3.18-8.48-.26-1.11.09-2.07-.07-3.08-.13-.82-.84-1.25-.68-2.21.2-1.23,2.11-3.55,2.77-4.81.71-1.35,1.45-2.69,2.21-4.04,1.71-3.01,3.18-5.97,4.1-9.09.99-3.35,1.5-6.73,1.43-9.95-.02-1.14-1.28-7.79-.19-8.16,3.36,4.94,7.29,9.28,8.9,15.2,1.5,5.53,1.66,11.25,1.67,17.22.01,5.76-1.32,12.66-3.91,18.58-1.13,2.59-2.68,5.13-4.1,7.66-1.59,2.84-2.82,6.27-4.76,8.96-1.27-2.54-.97-6.31-1.56-9.16M235.53,286.3c-2.86-3.74-2.25-8.7-2.31-13.59,2.87,4,6.84,7.73,8.46,12.43.94,2.71,4.84,10.73.69,13.55-2-4.42-3.88-8.51-6.84-12.39M212.85,309.98c-1.89-6.15-5.65-11.35-6.81-17.83-1.03-5.76-1.14-11.93.85-18.2.99-3.12,2.11-6.27,3.55-9.35.63-1.36,2.63-6.78,3.94-7.14,6.81,10.04,16.4,21.28,16.23,34.57-.08,6.16-1.61,12.74-4.22,19.01-2.55,6.13-6.53,11.47-10.47,17.25-.82-6.13-1.29-12.51-3.07-18.3M282.32,286.73c-6.48-1.71-13.8-2.61-19.37-5.68-5.98-3.3-11.89-7.09-16.83-11.44-2.5-2.2-4.75-4.6-7.01-6.99-1.99-2.1-5.24-4.45-5.6-7.51,15.95-1.84,29.75.85,42.06,6.9,6.38,3.14,11.64,6.99,15.07,12.72,1.89,3.15,3.46,6.53,5.15,9.8,1.17,2.27,3.65,5.25,3.82,7.94-5.41-2.56-11.18-4.13-17.29-5.74M152.23,302.05c-3.66-4.79-5.9-10.34-7.05-16.41-1.1-5.81-.96-12.33.65-18.66.78-3.08,2.15-6,3.67-9.01,1.12-2.22,2.37-5.99,4.93-7.53,7.02,8.02,13.84,19,14.74,30.17.92,11.58-4.76,24.45-8.53,36.4-1.76-5.77-4.8-10.23-8.41-14.96M228.09,274.75c-1.56-3.75-3.72-7.08-6-10.41s-4.85-6.65-6.3-10.46c-.4-1.05-1.65-9.32-.24-9.74,3.78,6.65,7.59,13.27,11.63,19.76,1.93,3.11,4.66,6.01,4.75,9.94.08,3.67-.08,7.4-.04,11.08h-.02c-1.52,0-3.2-8.77-3.78-10.18M126.41,243.66c2.98-5.91,6.57-10.71,11.96-15.6,2.87-2.6,6.05-4.9,8.89-7.52,1.92-1.77,4.33-5.42,6.54-6.66,2.48,5.39,3.97,11.18,1.8,17.87-1.86,5.72-5.1,12.17-8.73,17.56-4.07,6.03-9.5,11.98-15.12,17.14-2.88,2.65-5.83,5.21-8.49,8.02-2.08,2.2-4.13,5.42-6.72,7.08,2.34-12.69,3.48-25.23,9.88-37.89M238.81,222.41c-7.34-.81-13.88-2.77-20.07-5.55-2.94-1.32-5.8-2.86-8.17-4.81-2.13-1.75-2.52-4.31-3.34-6.87,13.62-4.15,31.36-5.01,42.94-1.19,6.54,2.15,12.52,5.26,18.48,8.17,2.94,1.43,5.69,3.06,8.45,4.7,1.64.97,7.13,2.91,7.21,4.76-9.97.86-19.79,1.62-29.43,1.62-5.41,0-10.77-.24-16.08-.82M190.83,259.8c.13-3.41.03-6.67-.51-9.9-1.05-6.19-2.85-12.11-3.44-18.45-.58-6.27.02-12.54,1.04-19.09,1-6.43,1.97-12.49,5.8-18.8,3.28,1.11,5.11,2.09,6.33,4.88,1.05,2.41,2.26,4.76,3.15,7.25,1.84,5.14,2.99,10.95,2.71,16.78-.53,11.02-5.8,22.91-11.11,33.82-.34.69-3.22,6.39-1.84,6.56,1.01.13,2.17-4.68,2.56-5.52,2.8-6.01,5.61-11.91,7.84-18,4.85-13.25,4.47-25.31.32-36.68,6.3,8.78,4.84,21.53,2.85,32.8-1.96,11.15-9.16,22.85-15.79,33.43-1-.07.03-7.61.09-9.09M103.35,206.88c-1.07-9.9,2.7-21.17,7.88-31.33,6.5,6.36,10.48,16.55,11.55,25.67,1.24,10.59.57,21.81-6.55,32.88-5.07-8.6-11.74-16.72-12.87-27.22M265.85,193.34c-3.53-.26-6.97-.7-10.25-1.51-6.23-1.53-12.24-3.92-17-7.36-10.1-7.29-14.05-19.74-15.13-31.91,7.05,6.27,17.06,11.62,28.23,12.37,7.04-1.21,12.05,6.74,14.92,10.57,4.31,5.76,7.31,12,10.4,18.48-.82.16-1.69.23-2.58.23-2.9,0-6.04-.67-8.58-.86M243.42,142.2c7.55-1.22,15.77-1.74,22.9-1.12,7.8.68,15.12,2.97,21.78,5.66,6.14,2.48,13.03,4.77,18.6,7.92-16.16,3.34-33.27,6.93-49.15,7.58-7.85.32-14.38-1.37-20.84-3.85-3.06-1.18-6.01-2.55-8.65-4.24-1.84-1.18-6.54-3.88-5.78-6.59.12,0,.25,0,.37,0,6.58,0,13.94-4.25,20.77-5.35M77.88,152.17c4.53-3.43,9.29-6.55,14.24-9.38,2.61-1.49,5.18-2.78,8-3.68,1.26-.4,6.45-2.23,7.2-1.43-4.93,8.6-14.65,16.79-23.73,22.36-9.87,6.04-20.18,10.6-31.05,13.3,7.27-8.02,16.53-14.51,25.34-21.17M137.09,160.18c-3.29-1.16-6.59-2.35-9.12-4.43-.68-.56-2.11-1.53-2.12-2.51,0-1.04,2.4-4.1,2.96-5.27,1.73-3.58,2.98-7.21,4.41-10.82,4.14,1.56,6.26,7.78,7.69,11.35.86,2.15,1.51,4.38,2.09,6.64.22.88.66,5.96,1.63,6.17,1.82.39.15-4.27.09-4.49-.59-2.16-1.16-4.33-1.82-6.46-1.43-4.55-4.02-8.35-6.22-12.49,3.36,3.48,5.75,7.95,7.18,12.55,1.3,4.18,3.11,8.59,3.56,13.07-3.56-.21-7.22-2.2-10.34-3.3M174.83,190.06c-.68-5.36.48-11.18,2.26-16.88,1.93-6.19,4.99-12.42,8.07-18.48,3.29-6.46,8.43-11.96,10.41-18.66,10.04,8.36,9.62,21.36,6.26,34.82-1.68,6.75-5.21,13.53-9.64,19.82-2.26,3.2-4.7,6.31-7.05,9.47-.82,1.11-5.03,8.96-5.71,9.06-1.77-6.26-3.77-12.54-4.61-19.15M109.71,164.53c5.47-3.86,10.26-8.85,14.11-13.9,1.86-2.44,3.66-5.03,4.98-7.65.65-1.3,1.63-6.55,2.64-7.03.93.92-1.7,6.53-2.33,8.15-1.17,3.04-2.63,5.74-4.93,8.44-5.41,6.34-10.98,11.11-18.28,15.74-6.55,4.15-13.19,7.21-20.35,9.89-2.3.86-20,8.21-20.66,7.01,9.65-9.63,18.71-19.79,29.81-28.24,10.89-8.28,22.28-14.58,34.7-20.12.79,3.88-3.94,10.02-6.65,13.58-3.53,4.62-7.87,9.29-12.81,12.91-10.7,7.84-23.59,10.81-35.12,16.73.01.14.15.2.41.2,3.72,0,31.51-13.63,34.48-15.73M111.47,133.01c.32,2.54,1.24,4.83,2.21,7.1.61,1.43.97,1.33-.25,2.56-.67.68-2.7,1.54-3.54,1.94-.26-2.48-1.05-9.33,1.57-11.6M168.74,131.17c4.36,1.07,8.23,2.92,12.71,3.87,2.2.46,11.19.5,11.81,2.35.9,2.66-4.7,9.19-6.28,11.69-.91,1.45-6.15,11.65-6.88,11.83-3.11-10.22-8.34-19.48-11.36-29.73M113.07,134.35c.27-2.19,1.84-2.12,4.26-2.81,2.56-.74,5.14-1.42,7.71-2.12,2.38-.66,3.19-.87,4.69.38,1.01.84,2.71,2.3,2.93,3.57-2.83,1.33-5.67,2.65-8.5,3.98-1.88.88-5.72,3.36-7.55,3.53-.04,0-.08,0-.12,0-1.95,0-3.68-4.42-3.42-6.54M130.17,128.2c2.76-1.13,5.22-2.31,7.84-3.78-.76,2.31-1.63,4.75-3.68,6.72-1.39-.98-2.77-1.97-4.16-2.95M69.52,133.92c4.77-1.08,10.05-2.7,14.68-3.18,11.65-4.24,23.12-9.16,34.77-13.36,6.06-2.19,12.21-4.29,18.34-6.02,2.43-.68,6.18-2.2,8.48-1.71,1.26.27.52,3.16-.2,3.43-1.12.87-1.45,1.31-2.19,2.37-2.14,3.08-3.25,5.76-6.84,8.07-6.38,4.1-16.15,5.85-23.15,7.54-10.23,2.47-20.45,4.56-30.14,4.56-4.73,0-9.34-.5-13.75-1.7M104.82,107.99c.13,1.94.26,3.89.4,5.83.03.41-.04,4.15.29,4.31,1.39.68,6.9-4.4,8.04-5.27-.52,1.78-.74,4.32-2.42,5.74-1.58,1.34-5.88,2.32-7.84,3.09-5.42,2.13-10.81,4.34-16.26,6.38,7.22-5.86,13.44-12.62,17.78-20.09M105.82,98.94c-1.56,10.13-8.17,19.02-18.02,26.24-2.37,1.73-4.57,3.87-7.33,4.88-2.63.96-5.83,1.39-8.49,1.89-1.24.24-6.39.32-6.39,1.88,0,1.27,4.98,2.42,6.15,2.89-6.44,3.74-13.33,6.52-20.24,8.86,2.4-4.3,5.9-8.52,8.75-12.7,2.54-3.72,4.87-7.72,8.04-11.16,7.01-7.57,16.03-13.42,25.64-17.71-10,6.3-18.77,12.17-26.61,20.68-3.25,3.53-5.66,7.68-8.36,11.47-.66.92-6.08,8.36-1.92,4.66,3.58-3.18,5.89-8.42,8.51-12.11,2.62-3.7,6.29-7.3,9.77-10.51,3.98-3.65,8.46-6.65,13.1-9.54,2.42-1.51,4.87-3.14,7.46-4.34,2.64-1.21,5.34-1.59,7.96-2.69-1.25-1.12-4.16.43-5.85.64,2.62-1.12,5.24-2.23,7.86-3.34M211.21,94.58c5.6.26,11.42.09,16.48,1.61,4.87,1.46,8.85,4.17,12.29,7.24,7.52,6.72,10.4,16.69,19.53,22.07-3.02.57-5.98.84-8.86.84-20.97,0-37.43-14.3-39.44-31.76M192.19,116.52c-4.51-3.02-8.48-6.01-10.38-10.95-2.03-5.25-2.39-10.77-1.68-16.84.26-2.21,2.31-15.09,4.39-15.93,7.74,6.9,16.74,13.15,19.92,23.18,2.93,9.25,1.35,20.15,2.72,29.9-5.19-2.85-10.13-6.13-14.97-9.36M220.43,78.62c-.44-3.55-3.53-7.16-5.15-10.2,9.32-.82,18.72,3.16,25.6,6.84,7.56,4.04,14.34,9.17,20.55,14.56-6.82.83-13.55.86-20.32,1.34-6.66.47-12.92.12-18.78-1.48-6.12-1.67-11.51-4.75-16.47-7.91-4.64-2.95-9.6-5.55-14.37-8.22-.63-.17-1.26-.35-1.89-.52,6.02-4.07,11.14-2.05,16.12-.23,2.86,1.04,5.69,2.16,8.41,3.39,1.88.85,3.8,2.43,6.2,2.43.04,0,.08,0,.12,0M185.64,71.33c-2.41-1.68-3.64-4.22-5.12-6.59,4.34,1.87,8.72,3.54,13.29,5.08-2.41,1.19-4.07,2.36-5.76,2.36-.77,0-1.55-.24-2.41-.84M106.68,107.19c.29-2.71.76-5.39.86-8.08.2-5.44,2.64-11.1,5.57-16.47,6.29-11.54,15.46-21.32,24.79-31.46-.36,2.65-.73,5.31-1.09,7.97-.36-.44-.72-.88-1.08-1.32-1.16.52.19,13.1.08,14.93-.28,4.59-1.6,9.69-4.14,14.25-2.88,5.17-7.1,9.82-11.68,14.16-2.58,2.45-11.81,9.28-11.1,12.11,7.64-8.18,17.08-15.13,22.87-24.34,2.88-4.58,4.32-9.25,5-13.98.21-1.46-.28-11.83.54-12.19,1.16,4.95,1.82,9.27.48,14.82-1.15,4.8-3.6,9.76-6.48,14.33-5.95,9.43-15.05,16.43-24.15,23.71-1.3-.38-.63-7.1-.49-8.42M117.11,109.72c2.37-2.88,6.27-5.64,8.97-8.38,5.41-5.5,9.47-10.91,12.12-17.45,2.71-6.71,3.42-12.25,2.25-18.38-1.24-6.45-1.78-11.73.74-18.77,1.8,4.47,2.02,9.93,3.24,14.68,1.3,5.05,2.26,10.24,3.49,15.32,1.18,4.87,3.46,10.09,3.74,15.22.23,4.25-1.13,11.73-3.88,16-11.1.81-21.62,5.44-32.65,9.31.13-2.54.04-5.17,1.99-7.54M198.07,68.66c-6.42-1.58-12.81-3.29-18.31-6.22-10.63-5.67-18.59-14.32-16.93-27.04,1.88,1.16,4.77.69,7.16.92,3.5.34,7.44.89,10.63,1.85,5.56,1.68,11.01,4.28,15.4,7.42,5,3.58,8.59,8.18,11.71,13.19,3.27,5.25,6.71,10.68,8.72,16.62-6.03-2.45-11.77-5.1-18.37-6.73M129.64,0c2.22,7.8,3.47,16.12,5.41,24.03,1.05,4.27,2.04,8.58,3.34,12.76,1.05,3.38,3.09,6.56.62,10.58-4.52,7.37-12.8,13.85-18.56,20.68-5.65,6.69-9.73,13.35-12.19,20.9-.68,2.1-1.48,4.24-1.94,6.33-.47,2.16-.2,2.08-2.73,3.31-3.71,1.81-7.58,3.3-11.31,5.07-8.91,4.22-17.47,8.95-23.93,16.19-5.88,6.59-9.62,13.87-14.83,20.72-1.47,1.93-3.06,3.69-4.81,5.46-1.23,1.25-2.74,2.26-.68,2.44,1.46.13,4.28-1.63,5.74-2.19,1.9-.73,3.82-1.34,5.73-2.06,4.48-1.7,8.85-3.71,13.21-5.73,3.09-1.44,5.96-1.39,8.94-1.36,1.06.01,2.13.03,3.23-.02,7.76-.36,15.84-1.51,23.75-3.24-.39,1.98-.21,1.38-2.03,2.29-1.41.7-3.37.97-4.88,1.38-3.27.88-6.46,1.77-9.64,3.19-5.6,2.49-10.8,6.12-15.74,9.71-5.49,3.98-10.15,8.28-15.02,12.82-2.37,2.22-4.89,4.37-7.4,6.47-.95.79-6.61,4.44-6.52,5.47.37,3.85,27.89-9.16,31.34-10.97,12.04-6.31,20.3-14.9,28.99-24.35.17,1.42.32,3.55-.12,5.03-.59,2.01-1.99,2.55-4.08,3.91-5.14,3.34-10.16,6.82-14.74,10.82-8.66,7.57-16.34,16.06-24.49,24.02-1.58,1.54-9.19,7.78-2.9,5.17,5.35-2.22,10.84-3.89,16.27-5.72,10.53-3.55,21.19-9.06,31.26-14.11.39,2.64,1.01,4.72-.07,7.49-1.05,2.68-1.94,5.37-2.96,8.05-2.14,5.63-3.66,10.37-4.01,15.93-.67,10.77,2.91,20.07,8.44,28.36,1.54,2.31,2.84,4.64,4.01,7.15.6,1.28.72,2.4,2.42,1.02.97-.78,1.91-4.91,2.58-6.13,1.15-2.09,2.19-3.92,2.91-6.08,3.36-10.21,3.33-20.31,1.57-29.66-.91-4.81-2.04-8.94-5.03-12.72-2.92-3.69-6.25-6.95-7.41-11.65-.3-1.23-.8-2.25,0-3.46.93-1.38,4.14-3.12,5.54-4.34,2.01-1.77,3.85-3.64,5.61-5.59,2.27-2.51,2.27-2.03,4.48-.5,3.95,2.74,8.46,4.72,13.03,6.73,2.35,1.04,4.8,2.24,7.38,2.95,1.64.45,2.44,1.19,2.77-.99.29-1.89-1.45-4.46-1.85-6.23-.47-2.1-.84-4.22-1.42-6.28-1.21-4.29-3.44-8.22-5.63-12.02-1.22-2.11-2.54-4.16-4.13-6.02-1.78-2.1-1.86-2.47-.28-5.44,2.41-4.55,5.25-8.49,8.05-12.86,1.31-2.05,3.3-2.12,4.76-3.91,1.53-1.88.03-2.36-.19-3.88-.29-1.98,1.27-4.64,1.84-6.83.58-2.22.97-4.45,1.43-6.67,2.87,3.29,3.62,8.76,5.29,12.76,1.83,4.39,3.41,8.89,5.03,13.38,2.87,7.96,6.12,15.76,9.07,23.7.63,1.69,2.21,3.92,2.1,5.8-.11,1.84-1.88,4.09-2.63,5.92-1.68,4.09-3.37,8.22-4.76,12.34-2.86,8.43-5.84,16.82-8.59,25.26-2.46,7.58-2.84,16.19-9.46,22.88-7.21,7.28-15.97,11.65-21.28,20.35-4.56,7.47-8.17,16.42-9.5,24.18-.75,4.37-1.28,8.71-2.05,13.08-.36,2.05-.69,4.1-1.15,6.15-.14.63-1.67,4.3-1.15,4.77,1.45,1.34,6.62-6.35,7.88-7.65,3.59-3.68,7.59-7.08,11.17-10.79,7.42-7.68,13.85-15.67,19.66-24.15.29,1.77,1.02,3.74.37,5.67-.67,2.02-2.27,4.29-3.31,6.26-1.95,3.72-3.98,7.13-4.93,10.98-1.89,7.66-1.67,14.91-.6,22.01,1.25,8.32,5.33,14.72,10.38,21.04,2.12,2.65,3.39,5.68,4.6,8.85.84,2.21,1.17,3.8,4.26,4.11-3.41-4.09,1.42-13.54,3.12-18.84,2.16-6.73,4.18-13.42,4.87-20.1,1.22-11.82-5.43-24.14-13-31.92-3.61-3.71-5.16-8.56-2.67-14.31,2.45-5.65,4.35-10.88,3.29-16.24-.57-2.87-1.92-5.19-3.04-7.76-.95-2.17.44-4.12,1.01-6.6,1.22-5.27,2.32-10.73,4.19-16.01,4.3-12.15,8.01-25.01,14-36.98,1.45,2.71,2.9,6.04,3.53,9.11.61,2.96-1.24,6.07-2.61,9.18-3.23,7.34-3.22,14.59-2.59,21.5.34,3.71,1.35,7.16,2.2,10.69.69,2.89.6,8.43,2.59,10.56,2.26,2.42,2.58-2.8,3.37-4.49,1.66-3.55,4.44-6.89,7.48-9.85-1.66,5.84-3.25,11.22-3.68,16.99-.49,6.55-.29,12.73.7,18.93.92,5.77,2.18,11.43,2.55,17.37.41,6.57-.12,13.34.29,19.92,1.54-.25,5.88-7.77,6.94-9.22,2.57-3.52,4.93-6.93,6.69-10.69,3.69-7.88,5.16-15.76,6.72-23.68,2.1,3.11,5.33,7.98,5.25,12.01-.05,2.43-.66,5.08-.6,7.56.02.93.5,2.16.21,3.09-.26.86-.81,1.07-1.27,1.9-2.73,5.01-4.53,10.6-6.14,15.74-1.48,4.72-3.16,9.74-3.3,14.37-.31,10.23,5.26,18.66,8.05,27.75,1.43,4.67,1.86,9.72,2.35,14.71.15,1.49-.35,4.44,2.24,3.11,1.65-.85,2.92-3.94,4.32-5.26,1.09,5.3,2.74,10.41,4.28,15.54.76,2.53,1.64,5.01,2.4,7.53.72,2.41.47,5.77,1.56,7.97,1.54,3.11,2.64-.33,3.46-2.35,1.04-2.53,2.5-4.96,3.99-7.39,2.92-4.77,4.41-9.24,6.36-14.12,4.54,6.85,13.5,9.79,17.69,16.91,1.13,1.91,2.3,2.27,2.59-.49.19-1.76-.5-3.55-.48-5.33.05-4.25.62-8.58.71-12.84.21-9.18-3.64-17.57-8.91-24.29-2.42-3.09-5.96-5.91-7.86-9.3-1.74-3.11-1.76-7.84-2.64-11.38,2.64,1.7,5.72,4.15,6.99,6.88,1.37,2.94,1.75,6.41,3.05,9.41,2.9,6.74,7.27,11.91,12.39,17.22,4.74,4.91,10.94,8.45,18.67,9.83,3.13.56,18.92,4.42,21.4,1.6-2.01-1.91-4.14-3.28-5.58-5.68-1.38-2.29-2.41-4.82-3.43-7.3-1.9-4.59-3.45-9.63-6.32-13.69-5.57-7.87-12.56-13.77-24.22-14.61-3.16-.23-6.21-.49-9.56-.05-3.39.44-4.85,1.27-7.22-.45-4.09-2.96-7.64-6.9-10.69-10.72-6.6-8.24-12.25-17.23-17.19-26.51,4.32,1.92,8.65,3.09,10.72,7.01,1.96,3.73,4.86,6.99,7.81,10.04,5.93,6.12,13.16,10.61,21.53,14.28,7.2,3.16,14.89,5.28,22.94,7.11,4.37.99,8.68,1.93,12.54,3.72,1.52.7,5.44,3.54,5.73.42.12-1.27-1.85-3.02-2.45-3.97-.94-1.48-1.72-2.99-2.49-4.56-1.57-3.19-3.41-6.23-5.09-9.35-3.8-7.04-9-12.08-16.53-16.05-7.1-3.75-14-5.6-22.86-6.64-3.34-.39-6.97-.19-10.59.01-5.71.31-11.41.63-15.92-1.37-3.45-1.52-6.55-2.79-8.15-5.97-1.69-3.35-2.88-6.89-4.29-10.38-1.4-3.48-3.86-6.77-4.71-10.48-.79-3.43.02-7.77.13-11.47,10.76,6.24,22.91,11.9,37.41,12.2,7.24.15,14.82-.36,22.29-1.28,3.54-.43,7.11-1.18,10.62-1.46.91-.07,1.86-.03,2.83,0,2.17.09,4.41.18,6.41-1.02-2.65-2.81-6.77-4.81-9.99-7.13-3.45-2.47-7.23-4.56-11.2-6.44-7.77-3.68-16.29-6.54-25.68-7.6-9.98-1.13-20.58.32-31.17,1.91-.99.15-2.21.49-3.17.48-.33,0-.59,0-.81,0-1.27.01-.6.02-1.52-1.04-1.28-1.47-1.83-3.53-3.13-5.06-1.59-1.87-4.46-7.46-8.19-6.62,5.02-9.12,9.41-18.3,10.88-27.7.76-4.87.56-9.47-.29-13.96-.76-4.01-2.91-7.2-4.01-11.02,6,1.79,14.82,3.95,18.06,8.66,3.31,4.82,2.11,11.05,3.66,16.67,3.33,12.09,10.68,22.41,23.06,27.86,5.8,2.55,12.98,3.79,20.01,4.04,3.24.12,6.44-.09,9.46.62,1.38.33,3.49,1.66,4.54-.2.66-1.17-2.86-6.35-3.37-7.8-1.09-3.11-2.44-5.74-4.27-8.44-3.6-5.33-7.86-10.07-12.28-14.81,13.63-.75,27.13-4.35,40.93-7.26,1.23-.26,8.31-.92,9.28-2.19,1.19-1.56-2.2-2.07-3.47-2.56-5.57-2.13-10.85-4.65-16.39-6.83-9.09-3.58-17.71-7.1-28.63-7.46-5.91-.19-11.93.76-18.07,2.22-5.26,1.26-10.51,3.48-15.76,4.59-5.99,1.27-10.58-2.36-15.1-4.2-4.69-1.91-9.47-3.72-14.22-5.54-1.41-.54-2.6-1.19-4.2-1.1-.11,0-1.75.55-2.3.61-2.79.31-6.05-.51-8.47-1.11-4.5-1.11-9.3-1.99-13.29-3.89-4.51-2.15-5.31-8.81-6.84-13.03-1.67-4.61-3.32-9.23-4.83-13.92-3.13-9.74-6.31-19.48-9.13-29.35-2.88-10.07-3.61-21.07-6.88-30.95-3.04-9.17-5.68-19-7.13-28.78,5.78,4.09,9.85,9.96,15.4,14.32,2.69,2.11,5.47,4.04,8.46,5.85,1.68,1.02,1.54.99,1.4,2.91-.12,1.58-.25,3.15-.23,4.72.1,6.86,3.04,11.98,7.92,16.34,2.3,2.06,5.29,3.31,7.69,5.23,2.18,1.75,4.02,4.36,5.6,6.58,1.66,2.33.08,5.28-.7,8.4-.81,3.19-2.02,6.37-2.68,9.56-1.38,6.68-.72,13.6,1.86,19.17,2.73,5.9,7.72,9.91,13.39,13.46,1.9,1.19,13.83,8.68,15.28,6.2.52-.89-.61-2.74-.77-3.49-.31-1.49-.41-3.06-.47-4.62-.14-3.19-.13-6.43-.17-9.64-.08-6.53-.82-12.94-3.74-18.43,3.41,1.55,5.58,3.15,6.32,6.64.71,3.35,1.69,6.33,3.23,9.31,3.33,6.43,7.8,11.18,14.42,15.04,5.85,3.41,13.08,5.58,20.67,6.25,3.22.29,9.46.21,12.86-1.19,4.48-1.84-.35-2.07-2.25-3.13-6.19-3.46-8.19-10.1-12.34-15.16-4.5-5.48-9.85-10.32-17.22-13.02-6.45-2.37-16.15-.63-21.39-4.36-5.93-4.23-10.55-9.01-15.35-14.21,6.1,1.36,10.77,6.45,15.71,9.35,4.87,2.86,10.53,4.47,16.41,5.89,6.56,1.58,12.99.96,20.26.44,1.31-.09,3.02-.05,4.9,0,4.97.13,11.16.25,14.44-2.24-1.87-2.8-5.59-4.95-8.41-7-3.07-2.23-6.01-4.61-9.25-6.67-5.8-3.71-12.65-6.11-19.64-8.27-3.09-.96-6.21-1.14-9.64-1.35-4.36-.26-5.04-3.13-6.88-6.08-3.62-5.83-7.28-11.03-12.76-15.51-4.7-3.84-9.92-6.54-16.48-8.1-6.03-1.44-14.08-.94-19.28-3.53-5.41-2.7-9.67-7.26-13.75-11.22-4.61-4.48-9.94-8.71-13.48-14-1.54-2.3-2.24-5.18-2.67-8.19h-2.63Z"/>
    </clipPath>
    <linearGradient id="linear-gradient" x1="-4195.11" y1="3914.39" x2="-4194.94" y2="3914.39" gradientTransform="translate(-7681444.57 8232519.58) rotate(90) scale(1962.4 -1962.4)" gradientUnits="userSpaceOnUse">
      <stop offset="0" stop-color="#58a232"/>
      <stop offset=".5" stop-color="#f9b233"/>
      <stop offset="1" stop-color="#c85a17"/>
    </linearGradient>
  </defs>
  <g id="Layer_1-2" data-name="Layer 1">
    <g class="cls-1">
      <rect class="cls-3" width="311.51" height="359.03"/>
    </g>
  </g>
</svg>