<?xml version="1.0" encoding="UTF-8"?>
<svg id="Layer_2" data-name="Layer 2" xmlns="http://www.w3.org/2000/svg" xmlns:xlink="http://www.w3.org/1999/xlink" viewBox="0 0 181.5 357.26">
  <defs>
    <style>
      .cls-1 {
        clip-path: url(#clippath);
      }

      .cls-2 {
        fill: none;
      }

      .cls-2, .cls-3 {
        stroke-width: 0px;
      }

      .cls-3 {
        fill: url(#linear-gradient);
      }
    </style>
    <clipPath id="clippath">
      <path class="cls-2" d="M108.79,329.66c.37-3.37.84-6.72,1.37-10.06,1.09-6.94,1.78-13.76,1.6-20.78-.31-12.12-2.05-27.95-9.89-37.52,3.39-2.06,7.95,13.11,8.54,15.62,1.62,6.89,2.75,13.93,2.67,21.06-.19,15.28-3.81,30.22-3.19,45.53-.77-.73-.41-2.2-1.98-1.56.18.81,1.51,4.97.85,5.3-4.52-5.18-6.55-13.44-8.9-19.83-2.43-6.61-3.89-13.54-4.77-20.57-1.82-14.53-.77-31.09,5.79-44.43,7.67,9.67,9.27,24.8,9.58,36.91.18,7.03-.72,13.71-1.74,20.66-.56,3.78-1.07,7.58-1.32,11.39-.13,2.03-1.03,5.78.86,7.1.92-2.24.25-6.28.53-8.83M54.64,260.53c7.79-4.08,15.52-6.13,23.94-8.1,4.32-1.01,8.36-2.62,12.4-4.49.99-.46,8.39-4.79,8.57-4.57-5.85,5.81-12.35,9.97-20.37,11.59-8.31,1.68-15.46,3.62-22.82,8.22-7.3,4.56-12.48,11.2-17.11,18.4-4.19,6.52-7.37,15.46-12.95,20.86,6.11-16.4,12.03-33.38,28.32-41.91M57.36,264.04c7.9-4.78,15.57-6.38,24.34-8.48,7.52-1.81,14.3-6.39,19.65-12.2-6.52,15.41-17.62,29.71-31.37,39.06-7.24,4.92-14.47,8.2-22.59,11.27-3.88,1.47-8,2.87-11.59,5.03-3.25,1.96-5.88,4.76-9.36,6.39,9.23-13.74,16.23-32.18,30.92-41.07M154.52,329.8c-3.84-3.08-7.56-5.91-11.01-9.47-6.94-7.15-12.39-15.7-16.77-24.74-4.6-9.51-5.24-20.64-8.57-30.64-3.15-9.45-9-18.15-6.92-28.46,4.94,9.91,11.5,17.19,18.91,25.23,6.83,7.41,13.26,14.8,19.48,22.75,6,7.67,9.29,16.87,11.8,26.23,1.45,5.4,2.32,10.84,2.4,16.47.04,2.7-.08,5.33.32,8,.12.8,1.45,4.41.81,4.95-3.79-2.86-6.66-7.28-10.45-10.33M86.07,223.39c4.63-.36,9.21-1.14,13.66-2.57,1.73-.56,9.33-5.11,10.33-4.49-10.91,18.07-28.06,25.15-47.28,30.59-5.18,1.47-10.35,3.07-15.6,4.25-4.69,1.06-9.09,1.23-13.64,2.97-4.8,1.84-9.88,3.46-14.45,5.86-2.16,1.13-4.18,2.6-6.15,4.04-1.19.87-4.06,3.91-5.47,3.69,1.68-2.45,3.37-4.9,5.05-7.34.13.54.26,1.07.4,1.6,2.5-1.67,4.51-5.63,6.12-8.21,1.95-3.11,3.95-5.97,6.27-8.82,4.47-5.47,9.7-10.41,16.09-13.46,6.3-3,13.96-4.14,20.82-4.51,3.37-.18,6.73.1,10.09.26,2.7.14,8.9,1.23,11.28-.23-1.02-1.23-4.5-1.12-7.11-1-.92.04-1.73.08-2.29.06-3.59-.11-7.21-.33-10.81-.23-6.8.19-14.5,1.23-20.9,3.81-13.49,5.43-20.24,18.13-28.69,29.16-.57-.43,6.4-11.08,7.3-12.33,2.98-4.13,6.38-7.5,10.36-10.63,7.63-6.02,14.84-10.08,24.41-11.47,5.74-.84,11.48-.79,17.23-.75,1.28,0,2.56.02,3.84.02,3.05,0,6.1-.05,9.15-.3M121.53,187.87c-5.23,8.53-15.46,12.91-24.17,16.41-9.65,3.88-19.06,3.79-29.2,4.88-10.08,1.09-20.83,3.94-30.05,8.42-2.87,1.39-22.34,15.3-23.72,13.56,3.04-5.4,5.96-10.85,8.84-16.33,2.24-4.27,3.77-8.79,7.29-12.23,7.14-6.97,17.73-10.29,27.31-11.02,10.87-.82,21.38,1.21,32.19,1.38.49,0,.98.01,1.47.01,10.45,0,19.99-1.75,30.03-5.09M38.28,174.63c3.49-3.57,7.28-6.56,11.47-9.23,7.73-4.92,16.45-5.73,25.24-5.04,10.43.83,20.38,2.84,30.66,4.52,5.04.83,9.88,1.35,15.01.83,1.5-.15,10.63-2.91,11-2.29-6.81,6.84-14.27,12.6-22.82,16.98-8.17,4.19-15.97,5.39-24.97,5.24-4.97-.08-9.98-.13-14.92-.67-4.27-.47-8.33-1.77-12.52-2.32-8.77-1.14-18.58.23-27.05,2.75-.6-1.74,7.59-9.44,8.89-10.77M130.04,123.07c4.54-.23,9.1-.43,13.6-1.16,2.01-.33,4.01-.74,6-1.23,1.2-.29,4.58-1.88,5.81-1.34-11.83,11.59-27.22,18.49-43.59,18.6-8.8.06-17.36-1.53-26.1-1.95-3.16-.15-21.35-1.33-21.84,3.48,3.56-.35,7.03-1.93,10.7-2.27,3.9-.36,7.81-.47,11.7-.19,7.78.55,15.45,1.92,23.28,1.97,7.62.05,15.63-1.42,22.95-3.74,3.35-1.06,6.52-2.52,9.59-4.27,2.92-1.66,5.97-5.03,9.05-6.07-10.1,15.41-26.15,24.22-43.72,26.62-8.85,1.21-19-.97-27.63-2.6-8.75-1.66-17.51-3-26.34-4.13-1.52.03-3.05.06-4.57.09,1.27-.81,21.8-23.25,53.48-22.26,6.82.22,13.61.6,20.42.6,2.4,0,4.81-.05,7.22-.17M176.5,90.68c-2.6,5.03-5.61,9.59-8.81,14.28-2.89,4.25-4.11,8.15-8.91,10.42-4.58,2.16-10.31,3.68-15.3,4.08-10.84.87-21.93-.05-32.77-.07-10.29-.02-20.26,1.6-30.2,4.55-9.73,2.88-18.21,8.53-26.45,14.46-2.09,1.5-4.09,3.23-6.32,4.51-1.49.86-5.07,1.53-6.07,2.99-1.63,2.4,1.15,1.91,2.8,1.77,2.54-.22,4.88-.59,7.44-.45,20.5,1.06,40.56,8.61,61.24,5.45,10.06-1.54,19.6-4.84,28.06-10.8,8.84-6.23,13.26-15.2,18.95-24.1,1.23.71-14.1,26.59-15.81,29.54-2.99,5.18-4.99,9.08-10.22,12.01-4.6,2.58-9.46,3.75-14.72,3.87-8.56.19-16.86-1.41-25.15-3.02-10.48-2.03-20.95-4.05-31.91-2.46-9.14,1.33-17.35,6.84-23.55,13.65-3.18,3.49-6.15,7.18-9.08,10.89-1.57,1.99-6.75,7.39-1.66,6.21,8.89-2.05,16.87-3.72,26.08-3.52,9.61.21,19.06,2.22,28.7,2.5,9.44.27,19.12-1.38,27.81-5.4,4.33-2,9.07-3.81,12.83-6.84,3.88-3.12,7.18-7.24,10.58-10.87-2.08,5.37-5.08,10.98-7.97,15.94-2.24,3.84-7.06,5.74-11.13,6.92-10.14,2.94-20.34,2.95-30.77,2.6-9.63-.31-18.91-1.45-28.57-.09-8.65,1.22-18,3.02-24.57,9.47-6.9,6.76-9.37,16.13-14.07,24.28-1.17,2.03-9.53,10.83-8.02,13.28.8,1.31,7.59-3.76,9.45-4.78,8.51-4.64,16.52-10.23,25.54-13.8,9.23-3.66,18.78-6.32,28.58-7.38,9.78-1.05,19.21-1.72,28.56-5.26,8.96-3.39,15.23-8.64,21.68-15.66-2.7,7.24-4.81,16.81-10.39,22.51-4.84,4.94-12.71,7.34-19.21,8.57-6.67,1.27-13.73,1.37-20.48,1.32-3.81-.03-7.59-.66-11.4-.62-1.67.02-24.85,2.92-36.2,17.37-4.15,5.3-7.93,10.63-11.42,16.36-1.64,2.7-12.99,15.64-13.29,17.46-.39,2.39,1.36,1.22,2.5.53,5.54-3.34,11.09-6.81,16.7-10.11,10.88-6.41,22.43-9.04,34.49-11.81,12.49-2.86,24.48-5.87,35.58-12.72,5.02-3.1,9.87-6.06,13.85-10.53,2.05-2.3,3.99-4.75,5.86-7.2.77-1.01,3.74-6.62,4.62-6.68-1.48,4.8-3.18,9.55-4.75,14.32-1.54,4.7-4.52,7.34-8.13,10.59-6.78,6.1-15.83,9.22-24.53,11.06-17.22,3.64-33.82,12.59-42.31,28.99-4.25,8.22-6.73,17.11-10.99,25.33-.74,1.42-5.78,7.2-3.92,8.43.77.51,7.94-6.24,9.44-7.26,7.2-4.9,15.37-7.58,23.21-11.11,7.78-3.5,15.86-8.11,22.56-13.48,7.2-5.77,13.48-12.04,18.47-19.91,4.79-7.55,9.04-15.36,13.35-23.21-1.25,4.95-2.21,10.08-3.74,14.94-1.56,5.01-3.97,9.69-5.68,14.64-3.26,9.43-4.26,19.51-4.16,29.42.17,16.61,4.88,34.01,12.45,48.51,1.38,2.65,3.49,8.43,6.12,9.94,3.02,1.74,1.66-2.53,1.4-4.38-1.16-8.21-1.12-16.3.29-24.53,1.49-8.67,3.06-16.76,2.97-25.59-.08-8.61-1.06-16.51-3.49-24.72-1.13-3.84-2.62-7.41-4.58-10.87-1.75-3.09-3.66-5.28-3.4-8.96.54-7.69,2.36-15.47,5.05-22.7-.06,5.19-.48,9.38.34,14.53.87,5.44,2.64,9.72,5.21,14.52,5.02,9.36,5,20.51,7.44,30.74,4.67,19.58,23.26,30.86,36.63,43.7,3.28,3.15,6.1,8.63,9.78,11.12,1.82,1.23,2.21.9,2.19-1.42-.02-2.1-1.23-4.65-1.64-6.7-1.97-9.75-2.77-19.77-4.76-29.53-3.94-19.32-16.84-35.69-30.88-48.41-6.66-6.04-12.68-12.32-17.61-19.93-2.45-3.77-4.05-7.51-4.38-12.12-.31-4.28,1-7.45,2.53-11.53,1.46,4.37,1.84,8.57,4.15,12.77,2.52,4.59,6.31,8.19,9.77,12.01,7.04,7.78,11.05,17.71,16.9,26.47,5.25,7.84,12.72,15.09,20.09,20.81,5.99,4.65,13.22,11.27,16.13,18.75v-4.92c-1.57-2.7-3.29-5.12-5.75-7.54-3.97-3.9-7.98-7.75-12.07-11.52-3.64-3.34-7.52-6.5-10.98-10.03-3.47-3.54-6.03-8.01-8.76-12.15-5.4-8.19-8.91-17.59-16.4-24.16-7.09-6.22-10.68-12.77-10.34-22.53,3.59,3.72,5.33,9.08,9.34,12.69,3.67,3.3,8.33,4.58,12.76,6.55,9.69,4.31,18.19,10.51,25.46,18.28,6.28,6.71,12.92,14.15,16.73,22.76v-4.2c-.05-.09-.11-.18-.16-.27-4.6-7.82-10.15-15.45-16.57-21.83-6.92-6.88-14.57-10.88-22.99-15.44-4.33-2.35-8.9-3.78-12.8-6.89-3.7-2.96-7.1-6.38-9.25-10.69-2.33-4.65-2.64-6.83-.76-11.78,1.73-4.56,2.95-9.65,5.32-13.92.55,2.27-.15,5,.07,7.35.25,2.68.91,5.37,1.6,7.95,1.35,5.05,3.31,10.02,6.06,14.43,5.78,9.29,14.38,15.25,24.24,19.27,11.08,4.53,18.88,11.94,25.23,20.8v-4.44c-2.8-3.74-5.68-7.38-9.33-10.31-4.19-3.36-9.13-5.66-13.8-8.25-9.1-5.05-17.03-9.28-23.18-18.11-2.71-3.89-5.71-7.95-6.8-12.67-1.11-4.87-.93-10.03-1.22-15.01,3.15,4.29,15.48,17.15,25.26,19.99,10.15,2.95,19.53,9.23,26.92,17.02.72.76,1.44,1.55,2.15,2.36v-4.38c-2.14-2.17-4.45-4.19-6.92-6.06-8.42-6.36-18.42-9.45-27.65-14.25-7.67-3.98-14.4-9.81-18.37-17.71-2.5-4.98.79-8.62,2.85-13.28,1.98-4.49,4.16-8.82,6.46-13.16.82,5.13.5,10.35,1.8,15.42,1.28,5,3.88,9.27,6.52,13.6,5.87,9.63,12.75,15.79,22.47,21.29,4.36,2.47,8.78,4.73,12.86,7.45v-2.66c-5.12-3.39-10.86-5.85-15.96-9.3-6.31-4.28-12.24-9.81-16.63-16.15-4.67-6.75-6.59-14.59-8.26-22.57-.84-2.91-1.42-6.21-.56-9.32,1.91,3.03,3.34,6.03,5.46,8.97,2.59,3.59,6.29,6.47,9.83,9.03,7.04,5.09,14.55,9.69,20.67,15.93,1.83,1.87,3.67,3.82,5.46,5.85v-3.29c-4.7-5.18-10.24-9.65-15.42-14.24-6.87-6.08-15.75-10.99-21.23-18.46-1.16-1.58-3.48-4.12-3.7-6.18-.18-1.67,1.18-3.38,1.94-4.78,2.17-3.98,4.49-7.86,6.78-11.77,2.61-4.46,5.31-8.88,7.76-13.43.92-1.7,3-8.47,5.45-7.94-2.55,11.39-5.4,21.71-4.17,33.52,1.12,10.81,6.29,20.37,13.82,27.82,2.82,2.79,5.81,5.48,8.77,8.22v-2.95c-3.29-3.32-6.45-6.69-9.16-10.32-5.8-7.78-9.82-17.38-10.2-27.3-.21-5.28.54-10.63,1.17-15.88.57-4.72.95-10.54,2.5-15.04,4.11,9.33,7.63,18.05,13.86,26.23.6.79,1.21,1.58,1.83,2.36v-4.94c-3.91-4.43-7.59-9.02-9.85-14.69-1.52-3.82-5.15-9.7-4.96-13.92.18-4.25,4.79-9.84,6.8-13.5,2.65-4.81,5.37-9.51,8.01-14.25v-4.47c-1.67,2.95-3.45,5.85-5,8.84M161.54,72.32c-3.16-.12-6.32-.24-9.45-.12-9.92.4-20.51,1.26-30.19,3.82-10.2,2.7-19.32,6.9-28.45,12.19-9.42,5.45-16.86,13.28-24.44,21.03-1.49,1.53-10.01,9.03-9,11.46.79,1.9,2.83-.55,3.91-1.22,2.22-1.36,4.65-2.13,7.12-2.85,10.39-3.01,19.99-4.62,30.73-4.18,10.49.43,20.98-.62,31.19-3.4,10.21-2.77,20.05-6.57,29.18-12.16,7.65-4.69,13.72-11,19.36-17.86v-4.91c-6.67,9.3-13.81,17.49-23.6,23.5-8.86,5.44-19.1,8.03-29.18,9.66-11.26,1.82-22.76,1.1-34.08,2.3-10.53,1.11-20.6,3.71-30.49,7.63-.77-1.36,9.93-11.2,11.38-12.67,3.83-3.87,8.06-7.27,12.68-10.09,9.2-5.62,18.39-10.54,28.71-13.62,10.89-3.25,22.05-5.26,33.33-5.83,5.73-.29,11.46-.42,17.19-.57,1.32-.03,11.52-1.15,14.06-1.16v-2.57c-6.48,2.15-13.22,1.89-19.96,1.63M168.52,55.72c-9.66,4.5-19.05,8.08-29.61,9.41-10.55,1.33-21.09.72-31.61,1.86-5.24.57-10.57,1.83-15.53,3.7-3.9,1.47-11.62,6.9-10.85,7.91,2.36-3.74,8.17-5.57,12.05-7.02,4.62-1.72,9.44-2.79,14.3-3.37,10.96-1.32,21.91-.72,32.91-2.23,10.61-1.45,20.28-4.92,29.87-9.83,3.88-1.99,7.74-4.02,11.46-6.32v-.89c-4.39,2.67-9,4.91-12.99,6.77M175.95,38.24c-7.51.56-15,.5-22.49.43-6.78-.06-13.55-.12-20.32.29-14.51.86-28.03,5.54-40.11,14.03-6.86,4.82-10.78,10.04-14.31,17.62-1.15,2.48-11.12,18.64-6.96,20.33,15.92-21.69,45.02-16.28,68-19.26,12.67-1.64,24.1-5.23,35.34-11.51,2.24-1.25,4.36-2.63,6.41-4.09v-2.33c-12.96,9.3-29.09,13.99-44.8,15.24-11.59.92-23.38.08-34.87,2.4-5.46,1.1-10.97,2.93-15.99,5.41-1.39.69-11.8,8.4-12.04,8.19,4.49-8.69,7.06-17.91,14.5-24.64,6.59-5.96,15.14-11.27,23.65-13.44,4.63-1.18,9.32-2.49,13.99-3.42,4.13-.82,8.39-2.16,12.57-2.39,2.88-.16,28.56-.98,28.75.33-7.63,1.46-15.77,1.45-23.49,2.36-2.32.27-20.64,1.25-20.67,5.15,2.7.02,5.83-1.55,8.51-2.15,2.82-.63,5.67-1.08,8.53-1.43,6.03-.74,12.06-1.45,18.11-1.92,7.99-.62,15.65-.95,23.25-2.26v-3.48c-1.85.23-3.71.39-5.56.53M106.07,0c-1.8,1.21-3.5,2.54-4.99,3.92-2.14,1.97-12.13,8.43-11.36,11.31,21.81-.16,40.91,12.54,61.7,17.36,5.27,1.22,9.95,1.51,15.34,1.16,4.89-.32,9.77,0,14.5-1.73.08-.03.16-.06.24-.09v-4.12c-.53.13-1.06.25-1.59.36-9.56,1.95-18.49,3.66-28.21,1.84-10.15-1.9-18.77-7.17-28.13-11.07-9.38-3.91-19.39-5.58-29.51-6.05,1.44-3.33,6.77-5.71,9.65-7.51,2.68-1.67,5.35-3.8,8.15-5.38h-5.8ZM127.29,0c-.5.04-1,.08-1.5.13-6.67.66-12.33,3.66-18.41,6.38-1.1.49-7.66,2.35-7.57,3.36.15,1.69,5.93-1.12,6.68-1.46,5.89-2.67,11.57-5.8,17.99-6.83,6.86-1.1,14.91-.8,21.45,1.47,6.81,2.36,12.78,6.37,19.13,9.68,5.3,2.76,10.66,4.79,16.45,5.56v-1.12c-12.11-1.75-22.55-10.24-33.97-14.62-3.71-1.42-7.67-2.22-11.69-2.55h-8.55ZM149.3,0c5.34,2.08,10.48,4.58,15.66,7.29,4.29,2.26,8.65,4.47,13.22,6.13,1.09.39,2.2.72,3.32,1.03v-1.98c-.51-.19-1-.38-1.47-.59-5.08-2.23-9.94-5.23-14.74-8.01-2.52-1.46-5.08-2.71-7.67-3.86h-8.33Z"/>
    </clipPath>
    <linearGradient id="linear-gradient" x1="-3089.9" y1="3902.08" x2="-3089.73" y2="3902.08" gradientTransform="translate(-7657347.96 6063651.62) rotate(90) scale(1962.4 -1962.4)" gradientUnits="userSpaceOnUse">
      <stop offset="0" stop-color="#58a232"/>
      <stop offset=".5" stop-color="#f9b233"/>
      <stop offset="1" stop-color="#c85a17"/>
    </linearGradient>
  </defs>
  <g id="Layer_1-2" data-name="Layer 1">
    <g class="cls-1">
      <rect class="cls-3" width="181.5" height="357.26"/>
    </g>
  </g>
</svg>