<?xml version="1.0" encoding="UTF-8"?>
<svg id="Layer_2" data-name="Layer 2" xmlns="http://www.w3.org/2000/svg" xmlns:xlink="http://www.w3.org/1999/xlink" viewBox="0 0 231.49 354.22">
  <defs>
    <style>
      .cls-1 {
        clip-path: url(#clippath);
      }

      .cls-2 {
        fill: none;
      }

      .cls-2, .cls-3 {
        stroke-width: 0px;
      }

      .cls-3 {
        fill: url(#linear-gradient);
      }
    </style>
    <clipPath id="clippath">
      <path class="cls-2" d="M190.17,323.95c-4.64-3.35-5.55-11.87-7.29-17.19,11.14,6.76,20.53,15.74,28.37,25.89-6.52-2.52-15.51-4.66-21.08-8.69M203.33,314.24c-6.63-5.36-13.81-10.2-20.67-15.3,9.93-.2,19.09-.29,23.85,7.91,4.72,8.13,11.95,16.62,13.39,26.44-5.14-6.66-9.97-13.7-16.58-19.05M163.15,310.4c-2.09-2.18-15.73-18.28-13.19-20.67,7,2.5,16.04,5.41,21.69,9.98,5.64,4.56,8.61,14.8,10.26,21.78-8.17-2.1-13.01-5.07-18.77-11.09M173.77,293.56c-3.36-1.13-21.65-8.89-21.02-11.49,10.49-1.42,20.19-1.23,29.97,1.5,8.13,2.27,11.74,6.09,16.5,12.44-4.78-.34-9.21-1.9-14.04-2.03-1.3-.03-2.55.04-3.79.12-1.02.06-2.02.12-3.02.12-1.54,0-3.06-.15-4.61-.67M135.73,307.73c-12.13-9.64-20.56-19.52-27.53-33.28.76-.77,28.82,9.2,31.13,11.17,4.9,4.18,8.03,12.7,12.32,17.75,4.31,5.06,10.95,9.91,13.77,15.9-13.26-.61-19.84-3.72-29.68-11.53M131.58,275.49c-5.18-1.7-12.28-2.25-16.85-4.83,20.75-14.47,56.89-10.37,68.9,8.42-6.05-1.19-11.51-2.76-17.96-2.41-3.05.17-6.44.3-9.49.97-2.41.53-4.45,2.32-6.4,2.77-.6.14-1.24.2-1.91.2-5.11,0-11.87-3.68-16.3-5.13M110.99,319.3c-8.1-.69-14.68-10.75-19.48-16.42-13.56-15.99-24.81-33.2-33.31-52.56,8.57,5.16,17.44,9.87,26.64,14.04,4.62,2.1,9.74,3.65,14.16,6.05,4.08,2.22,4.67,4.15,6.42,8.37,6.61,15.93,20.92,26.12,32.72,37.88-1.11,0-2.2,0-3.29-.02-3.17-.03-6.31-.07-9.57.35-4.18.53-8.95,2.35-13.18,2.35-.38,0-.75-.02-1.12-.04M101.57,249.21c7.28-1.03,14.58-1.13,21.72-.68,10.47.67,25.99,1.5,32.88,9.54-6.48-.48-12.64-1.35-19.29.09-7.45,1.61-14.64,4.83-21.83,7.51-7.15,2.66-10.91,2.42-16.89-.74-6.27-3.31-13.88-6.15-19.23-10.61h.15c7.14,0,15.2-4.08,22.49-5.1M67.95,319.84c-9.97-6-18.19-20.04-22.75-30.39-4.56-10.36-9.79-20.51-13.35-31.35-1.36-4.13-10.57-30.23-6.5-33.11,8.09,5.87,18.78,12.34,24.57,20.43,5.39,7.53,8.04,18,12.54,26.23,10.38,18.97,24.46,33.39,38.79,49.22-4.78,1.15-11.38,2.08-17.73,2.08s-11.82-.83-15.58-3.1M57.6,240.12c-7.44-5.73-14.52-11.57-21.29-18,8.79-2.77,20.52-.02,29.14.93,9,.99,17.43,2.94,26.05,5.09,5,1.25,50.38,12.34,47.22,18.21-18.17-6.34-37.54.85-56.55,2.67-1.43.14-2.75.2-3.99.2-8.95,0-13.3-3.5-20.58-9.11M25.53,212.07c-2.82-2.51-21.42-17.88-20.05-20.79,21.24-2.21,43.95,5.1,62.66,11.73,19,6.74,37.62,14.5,52.46,27.48-10.38-.92-20.69-6.39-30.82-8.64-10.56-2.34-21.49-4.31-32.4-5.5-3.14-.34-6.7-.25-10.32-.15-1.69.04-3.39.09-5.07.09-6.34,0-12.42-.62-16.45-4.22M0,12.39c4.56,3.47,7.09,8.42,10.23,13.28-2.84,1.15-6.59.25-10.23-1.04v4.57c2.29.67,4.55,1.36,6.76,2.06-.79.22,5.7,1.03,8.7,3.15,2.66,1.88,4.38,7.02,5.94,9.84,2.74,4.93,8.87,13.23,8.63,19.37-7.31-1.36-14.36-6.03-21.49-8.24-2.82-.88-5.67-1.65-8.54-2.35v6.23c8.43,2.02,16.69,4.4,24.98,7.81,3.77,1.55,6.97,2.34,9.19,5.61,1.97,2.88,2.79,7.84,3.91,11.22,2.04,6.17,3.88,12.45,5.35,18.83-14.39-6.62-28.7-12.52-43.43-17.54v4.92c7.53,3.02,14.95,6.27,22.43,9.26,6.17,2.47,12.6,4.64,18.6,7.42,6.08,2.82,6.89,7.23,8.22,13.96-16.02-6.48-32.24-11.76-49.25-15.15v4.14c4.97,1.17,9.83,2.54,14.45,3.91,6.4,1.89,12.63,4.14,18.86,6.4,4.92,1.78,14.09,3.04,17.91,6.21,3.62,3,5.28,10.1,7.25,14.36,2.51,5.42,5.11,10.8,7.66,16.2-20.24-9.61-43.46-16.69-66.13-22.08v5.82c18.27,5.03,51.68,15.66,61.32,18.96,6,2.05,8.58,4.28,11.57,9.6.89,1.58,6.68,9.08,4.85,10.77-9.5-5.79-20.87-8.77-31.39-12.77-10.31-3.92-20.82-7.48-31.73-10.05-4.79-1.13-9.68-2.14-14.63-2.92v5.74c4.92.65,9.7,1.53,13.8,2.21,11.25,1.85,22.04,5.16,32.34,9.33,11.22,4.54,22.11,9.93,32.69,15.56,3.11,1.66,22.13,21.63,20.61,23.72-21.57-9.15-41.93-16.68-65.73-20.82-5.68-.99-11.39-1.89-17.11-2.79-5.03-.78-11.86-.66-16.6-2.42v16.96c3.27,3.57,6.54,7.16,9.92,10.62,3.57,3.67,9.13,6.57,10.53,11.57,1.49,5.32.33,12.3,1.38,17.97,1.08,5.81,2.74,11.42,4.87,16.83,9.34,23.65,21.93,44.85,38.9,63.45-6.44.51-16.95,3.13-23.09,1.74-5.73-1.3-8.83-8.34-12.13-12.79-8.41-11.32-14.74-23.49-20.64-36.37-3.73-8.14-7.11-16.87-9.74-25.95v14.16c7.54,21.34,18.03,40.94,30.03,60.26-2.03,1.05-3.83.68-5.67.31-1.03-.21-2.08-.41-3.18-.37-3.19.13-6.25.96-9.65.93-1.08,0-2.49.1-4.01.22-2.52.18-5.36.37-7.51.01v6.34c8.78.26,17.69.02,26.56-1.11,7.42-.94,14.88-.86,22.34-.78,5.01.05,10.01.11,15-.15,8.05-.41,15.89-1.58,23.86-1.16,6.82.36,13.17.94,20.15-.19,15.09-2.44,28.09-6.14,43.19-4.36,14.36,1.69,29.57,3.51,43.01,7.85,14.2,4.58,23.45,11.3,30.72,23.56,6.64-5.17,4.5-8.02,3.06-14.66-1.51-6.96-4.03-13.05-7.29-19.21-6.75-12.79-13.69-23.69-22.78-34.91-9.09-11.22-20.81-18.41-31.9-27.5-10.85-8.9-22.84-16.32-33.97-24.95-10.26-7.95-18.77-18.1-27.21-27.82-17.42-20.04-30.42-43.62-41.43-67.84-11.12-24.48-15.85-51.52-26.51-76.15-5.55-12.83-11.94-25.46-19.37-37.2C12.03,15.39,6.25,7.67,0,0v12.39Z"/>
    </clipPath>
    <linearGradient id="linear-gradient" x1="-4605.12" y1="3906.87" x2="-4604.87" y2="3906.87" gradientTransform="translate(-7666728.23 9036926.33) rotate(90) scale(1962.4 -1962.4)" gradientUnits="userSpaceOnUse">
      <stop offset="0" stop-color="#58a232"/>
      <stop offset=".5" stop-color="#f9b233"/>
      <stop offset="1" stop-color="#c85a17"/>
    </linearGradient>
  </defs>
  <g id="Layer_1-2" data-name="Layer 1">
    <g class="cls-1">
      <rect class="cls-3" width="231.49" height="354.22"/>
    </g>
  </g>
</svg>